<svg width="69" height="47" viewBox="0 0 69 47" fill="none" xmlns="http://www.w3.org/2000/svg">
<path fill-rule="evenodd" clip-rule="evenodd" d="M22.3175 30.6346L19.5228 25.9677L17.1627 22.0377L7.13363 28.0731L8.66541 30.6346H22.3175ZM45.5221 30.6346H59.1743L41.2788 0.788574L31.2596 6.82402L45.5221 30.6346ZM40.7511 35.3117C39.7882 34.6899 38.6599 34.3266 37.4385 34.3266H37.4075C34.0337 34.3473 31.291 37.1058 31.291 40.4866C31.291 43.8678 34.0337 46.6259 37.4075 46.6469H37.4385C38.6599 46.6469 39.7882 46.284 40.7511 45.6618V46.3047H43.5764V30.6349H40.7511V35.3117ZM40.7511 41.1298C40.4511 42.6856 39.0742 43.8777 37.4385 43.8777H37.4075C35.5548 43.857 34.0543 42.3429 34.0543 40.4866C34.0543 38.6306 35.5548 37.1165 37.4075 37.1058H37.4385C39.0742 37.1058 40.4507 38.2884 40.7511 39.8437V41.1298ZM54.0199 35.3117C53.035 34.6677 51.8839 34.3254 50.7078 34.3266H50.6763C47.3025 34.3473 44.56 37.1058 44.56 40.4866C44.56 43.8678 47.3025 46.6259 50.6763 46.6469H50.7078C51.9292 46.6469 53.0677 46.284 54.0199 45.6618V46.3047H56.8458V34.6376H54.0199V35.3117ZM54.0199 41.1298C53.7199 42.6856 52.3429 43.8777 50.7078 43.8777H50.6763C48.8243 43.857 47.3233 42.3429 47.3233 40.4866C47.3233 38.6306 48.8243 37.1165 50.6763 37.1058H50.7078C52.3429 37.1058 53.7196 38.2884 54.0199 39.8437V41.1298ZM66.8954 39.7192C66.7921 39.6669 66.647 39.6153 66.4811 39.5531C65.8498 39.3353 64.8251 39.0657 63.3967 38.7548C62.1444 38.4744 61.513 38.1119 61.513 37.6555C61.513 37.3338 61.6267 37.0745 61.844 36.8881C62.1341 36.6391 62.651 36.5145 63.3967 36.5145C64.1523 36.5145 64.7008 36.6807 65.0218 37.0019C65.2185 37.199 65.363 37.5512 65.4563 38.0493H68.4582C68.4582 36.5768 67.8577 35.5192 66.6778 34.8763C66.6157 34.8356 66.5498 34.8009 66.4811 34.7727C65.6631 34.3889 64.5765 34.1918 63.2209 34.1918C61.5748 34.1918 60.3332 34.6276 59.5056 35.5088C58.8434 36.2139 58.5224 37.0745 58.5224 38.0909C58.5224 39.3567 59.1431 40.2689 60.4061 40.8601C60.8822 41.0882 62.0411 41.4098 63.8839 41.804C65.1156 42.0737 65.7359 42.4575 65.7359 42.9449C65.7359 43.2356 65.6122 43.4843 65.3431 43.7123C65.0011 44.0026 64.4835 44.1481 63.7904 44.1481C62.869 44.1481 62.2172 43.9926 61.8345 43.692C61.451 43.4017 61.2542 42.9766 61.2542 42.4373H58.1081C58.1081 43.8685 58.7085 44.9365 59.9192 45.6412C60.8822 46.1908 62.1448 46.4712 63.7081 46.4712C64.753 46.4712 65.6844 46.2947 66.4815 45.9529C66.6473 45.8803 66.7925 45.8074 66.9476 45.7245C68.1794 45.0404 68.8004 43.9514 68.8004 42.4583C68.8 41.2333 68.1679 40.3205 66.8954 39.7192ZM9.47283 35.3117C8.48348 34.669 7.32956 34.3269 6.15045 34.3266H6.11928C2.7558 34.3473 0.0128632 37.1058 0.0128632 40.4866C0.0128632 43.8678 2.7558 46.6259 6.11928 46.6469H6.15045C7.37186 46.6469 8.51025 46.284 9.47283 45.6618V46.3047H12.2983V34.6376H9.47283V35.3117ZM9.47283 41.1298C9.1728 42.6856 7.79579 43.8777 6.15045 43.8777H6.11928C4.27724 43.857 2.77638 42.3429 2.77638 40.4866C2.77638 38.6306 4.27724 37.1165 6.11928 37.1058H6.15045C7.79616 37.1058 9.1728 38.2884 9.47283 39.8437V41.1298ZM27.1093 33.4038H30.1835V30.6968H27.1093V33.4038ZM27.1093 46.3043H30.1835V34.3266H27.1093V46.3043ZM22.8764 35.3117C21.8869 34.6689 20.7328 34.3268 19.5536 34.3266H19.5228C16.1487 34.3473 13.4058 37.1058 13.4058 40.4866C13.4058 43.8678 16.1483 46.6259 19.5228 46.6469H19.5536C20.7329 46.6469 21.8869 46.3047 22.8764 45.6618V46.3047H25.702V30.6349H22.8764V35.3117ZM22.8764 41.1298C22.5763 42.6856 21.1993 43.8777 19.5536 43.8777H19.5228C17.6701 43.857 16.1693 42.3429 16.1693 40.4866C16.1693 38.6306 17.6701 37.1165 19.5228 37.1058H19.5536C21.1993 37.1058 22.576 38.2884 22.8764 39.8437V41.1298ZM40.7401 30.6346L37.4075 25.0556L29.2209 11.408L19.5228 17.257L19.1916 17.4537L19.5228 18.0034L27.0987 30.6346H40.7401Z" fill="white"/>
</svg>
