<svg width="100" height="104" viewBox="0 0 100 104" fill="none" xmlns="http://www.w3.org/2000/svg">
<path d="M87.7213 84.9684C45.0134 104.929 18.8085 88.1123 1.90542 77.8323C0.855225 77.1836 -0.945108 77.8323 0.605178 79.7286C6.25622 86.5653 24.7096 102.983 48.7641 102.983C56.1618 103.189 63.5274 101.933 70.4365 99.2864C77.3456 96.6399 83.6619 92.6558 89.0215 87.5633C90.7718 85.3177 89.5216 84.0702 87.7213 84.8187V84.9684ZM99.6735 78.3813C98.5233 76.8842 92.7222 76.5848 89.0715 77.0339C85.4208 77.483 79.9198 79.7286 80.4199 81.076C80.67 81.575 81.1701 81.076 83.6705 81.076C86.171 81.076 93.2723 79.9283 94.7226 81.8246C96.1728 83.7208 92.4721 92.9528 91.772 94.4499C91.0719 95.947 91.772 96.3462 93.2723 95.3481C95.4736 93.3709 97.1854 90.9111 98.2732 88.1622C99.8243 85.0792 100.35 81.5831 99.7735 78.1817L99.6735 78.3813Z" fill="white"/>
<path fill-rule="evenodd" clip-rule="evenodd" d="M59.103 43.5992C59.6274 48.5501 58.7435 53.5483 56.5525 58.0211C55.6809 59.7955 54.3495 61.305 52.6963 62.393C51.0432 63.4811 49.1285 64.1081 47.1508 64.209C42.1498 64.209 38.8492 60.2168 38.8492 54.2285C38.8492 42.6511 49.2511 40.5053 59.103 40.5053V43.5992ZM72.8555 76.7345C72.4163 77.1017 71.8779 77.3309 71.3082 77.393C70.7386 77.4552 70.1633 77.3476 69.6549 77.0839C66.5043 74.5599 63.8433 71.4817 61.8035 68.0016C59.1271 71.3287 55.6934 73.97 51.7879 75.7059C47.8824 77.4419 43.618 78.2222 39.3493 77.9821C36.5528 78.1478 33.7536 77.7057 31.1451 76.6864C28.5365 75.667 26.1809 74.0947 24.2408 72.0781C22.3007 70.0615 20.8225 67.6487 19.9083 65.0063C18.994 62.3639 18.6655 59.555 18.9455 56.7735C18.7628 52.0104 20.064 47.3078 22.6702 43.313C25.2763 39.3183 29.0593 36.2279 33.4982 34.4671C41.7546 31.6071 50.3749 29.9271 59.103 29.4768V27.9797C59.5455 24.5634 58.9716 21.0926 57.4527 17.9992C56.5652 16.8858 55.4294 15.9946 54.1357 15.3968C52.842 14.799 51.4263 14.5111 50.0013 14.5559C47.4579 14.3058 44.9116 15.0033 42.8527 16.5142C40.7938 18.0252 39.3678 20.2427 38.8492 22.74C38.8492 23.9376 37.699 25.1852 36.4988 25.2351L23.2463 23.7879C22.9226 23.7396 22.6119 23.6271 22.3325 23.4569C22.0532 23.2868 21.8107 23.0626 21.6196 22.7974C21.4285 22.5323 21.2926 22.2317 21.2198 21.9132C21.147 21.5948 21.1389 21.2651 21.196 20.9435C24.2465 5.12436 38.7492 0.134103 51.7016 0.134103C59.1501 -0.159638 66.4527 2.25163 72.2554 6.92085C78.9066 13.1088 78.2565 21.3427 78.2565 30.3252V51.5337C78.2788 56.2041 80.0645 60.6944 83.2574 64.1092C83.7253 64.6007 83.9861 65.2527 83.9861 65.9306C83.9861 66.6085 83.7253 67.2606 83.2574 67.7521C80.4569 70.0476 75.506 74.3891 72.8055 76.7844" fill="white"/>
</svg>
