<svg width="100" height="123" viewBox="0 0 100 123" fill="none" xmlns="http://www.w3.org/2000/svg">
<path d="M83.5119 65.1574C83.3637 49.6427 96.2076 42.1885 96.7853 41.8336C89.556 31.2883 78.3269 29.8389 74.327 29.6762C64.7718 28.7 55.6758 35.2964 50.8167 35.2964C45.9577 35.2964 38.4765 29.8093 30.5509 29.972C20.1216 30.1199 10.5073 36.0211 5.12971 45.3388C-5.68468 64.0629 2.37427 91.8681 12.9368 107.087C18.107 114.526 24.24 122.912 32.3286 122.602C40.1209 122.291 43.0541 117.573 52.4463 117.573C61.8385 117.573 64.4903 122.602 72.7122 122.454C81.0822 122.291 86.3857 114.852 91.5114 107.383C97.4074 98.7307 99.8519 90.3743 100 89.9306C99.8074 89.8567 83.6897 83.6892 83.5119 65.1574Z" fill="white"/>
<path d="M74.4602 0.110107C75.2453 7.29804 72.3564 14.5008 68.0603 19.6921C63.779 24.8686 56.7274 28.9062 49.8684 28.3738C48.9203 21.3337 52.4018 13.9979 56.372 9.41301C60.8014 4.22172 68.2826 0.361537 74.4602 0.110107Z" fill="white"/>
</svg>
