<svg width="160" height="85" viewBox="0 0 160 85" fill="none" xmlns="http://www.w3.org/2000/svg">
<path d="M37.8488 43.7945H48.8916L65.163 0.110107H54.9076L47.6005 19.7022L48.86 0.110107H37.9489L21.6784 43.7945H31.9328L39.104 24.4676L37.8488 43.7945Z" fill="white"/>
<path d="M66.4934 0.110107L50.2237 43.7945H60.4782L76.7478 0.110107H66.4934Z" fill="white"/>
<path fill-rule="evenodd" clip-rule="evenodd" d="M20.4958 28.7372C6.1663 45.6818 -7.35089 68.2278 4.58883 78.6102C16.0567 88.583 30.6266 82.7127 40.4798 78.7428C50.3401 74.7712 159.325 27.1151 159.325 27.1151C160.377 26.5856 160.181 25.9235 158.865 26.2541C158.642 26.3104 137.525 32.0702 113.169 38.7151L114.378 35.3227H102.415L106.346 24.7328H116.205L119.239 16.5915H109.379L112.759 7.39128H123.144L125.9 0.110107H94.6103L83.8669 13.2157L88.8269 0.110107H78.4407L62.3011 43.7945H72.5555L79.4463 25.5266L79.9183 43.7945L94.6696 43.7623C66.7172 51.3889 40.2173 58.6203 40.2173 58.6203C25.2285 62.8571 8.13801 53.6233 20.4958 28.7372ZM90.0915 40.8819L89.434 18.1137L104.938 0.972812L90.0915 40.8819Z" fill="white"/>
</svg>
