<svg width="1439" height="354" viewBox="0 0 1439 354" fill="none" xmlns="http://www.w3.org/2000/svg">
<path opacity="0.15" fill-rule="evenodd" clip-rule="evenodd" d="M1256.5 327C1276.11 327 1292 311.106 1292 291.5C1292 271.894 1276.11 256 1256.5 256C1236.89 256 1221 271.894 1221 291.5C1221 311.106 1236.89 327 1256.5 327Z" fill="white"/>
<path opacity="0.3" fill-rule="evenodd" clip-rule="evenodd" d="M1000.5 304C1026.73 304 1048 282.734 1048 256.5C1048 230.266 1026.73 209 1000.5 209C974.266 209 953 230.266 953 256.5C953 282.734 974.266 304 1000.5 304Z" fill="white"/>
<path opacity="0.15" fill-rule="evenodd" clip-rule="evenodd" d="M1000.5 304C1026.73 304 1048 282.734 1048 256.5C1048 230.266 1026.73 209 1000.5 209C974.266 209 953 230.266 953 256.5C953 282.734 974.266 304 1000.5 304Z" fill="white"/>
<path opacity="0.15" fill-rule="evenodd" clip-rule="evenodd" d="M838 319C857.33 319 873 303.33 873 284C873 264.67 857.33 249 838 249C818.67 249 803 264.67 803 284C803 303.33 818.67 319 838 319Z" fill="white"/>
<path opacity="0.15" fill-rule="evenodd" clip-rule="evenodd" d="M578 354C611.137 354 638 327.137 638 294C638 260.863 611.137 234 578 234C544.863 234 518 260.863 518 294C518 327.137 544.863 354 578 354Z" fill="white"/>
<path opacity="0.15" fill-rule="evenodd" clip-rule="evenodd" d="M370.5 304C396.734 304 418 282.734 418 256.5C418 230.266 396.734 209 370.5 209C344.266 209 323 230.266 323 256.5C323 282.734 344.266 304 370.5 304Z" fill="white"/>
<path opacity="0.15" fill-rule="evenodd" clip-rule="evenodd" d="M188 354C221.137 354 248 327.137 248 294C248 260.863 221.137 234 188 234C154.863 234 128 260.863 128 294C128 327.137 154.863 354 188 354Z" fill="white"/>
<path opacity="0.15" fill-rule="evenodd" clip-rule="evenodd" d="M-14.5 329C11.7335 329 33 307.734 33 281.5C33 255.266 11.7335 234 -14.5 234C-40.7335 234 -62 255.266 -62 281.5C-62 307.734 -40.7335 329 -14.5 329Z" fill="white"/>
<path d="M-14.2656 291.465C-23.8676 291.465 -31.66 283.685 -31.66 274.081C-31.66 264.46 -23.8678 256.686 -14.2656 256.686C-4.65517 256.686 3.12754 264.46 3.12754 274.081C3.12754 283.685 -4.65517 291.465 -14.2656 291.465ZM-14.2656 248C-28.6602 248 -40.333 259.676 -40.333 274.081C-40.333 288.475 -28.6601 300.147 -14.2656 300.147C0.135281 300.147 11.8265 288.475 11.8265 274.081C11.8265 259.676 0.135281 248 -14.2656 248Z" fill="white"/>
<path d="M-14.2655 265.144C-19.1995 265.144 -23.1976 269.132 -23.1976 274.081C-23.1976 279.014 -19.1998 283.014 -14.2655 283.014C-9.32656 283.014 -5.32016 279.014 -5.32016 274.081C-5.32016 269.132 -9.32656 265.144 -14.2655 265.144ZM-37.8425 306.95H-40.7177V305.176H-32.8577V306.95H-35.7328V314.77H-37.8425V306.95ZM-33.7713 314.77H-31.6359L-30.8828 312.633H-27.2952L-26.5694 314.77H-24.3796L-27.9673 305.176H-30.13L-33.7713 314.77ZM-29.0822 307.54H-29.0558L-27.847 311.06H-30.3311L-29.0822 307.54ZM-23.5476 314.77H-21.437V311.021H-19.3287C-18.2661 311.021 -17.8773 311.464 -17.73 312.471C-17.621 313.237 -17.6485 314.165 -17.393 314.77H-15.2845C-15.6603 314.232 -15.6466 313.102 -15.6873 312.498C-15.7548 311.529 -16.0493 310.523 -17.0846 310.254V310.228C-16.0218 309.798 -15.5654 308.952 -15.5654 307.822C-15.5654 306.372 -16.6546 305.176 -18.374 305.176H-23.5475L-23.5476 314.77ZM-21.437 306.815H-19.1255C-18.1865 306.815 -17.6755 307.218 -17.6755 308.144C-17.6755 309.111 -18.1865 309.515 -19.1255 309.515H-21.437V306.815ZM-7.18251 313.681C-7.92208 314.636 -8.88783 315 -9.81556 315C-12.7842 315 -14.5315 312.779 -14.5315 310.011C-14.5315 307.164 -12.7844 304.948 -9.81556 304.948C-7.85428 304.948 -5.99949 306.157 -5.77035 308.332H-7.78689C-8.02937 307.27 -8.82192 306.721 -9.81556 306.721C-11.7103 306.721 -12.4234 308.332 -12.4234 310.011C-12.4234 311.611 -11.7103 313.223 -9.81556 313.223C-8.44452 313.223 -7.65359 312.484 -7.53201 311.153H-9.65395V309.583H-5.62397V314.769H-6.96874L-7.18251 313.681ZM-4.1858 305.176H2.98673V306.95H-2.07652V309.005H2.57145V310.645H-2.07652V312.995H3.0955V314.77H-4.1858V305.176ZM6.9113 306.95H4.03604V305.176H11.8971V306.95H9.02031V314.77H6.9113V306.95Z" fill="white"/>
<path opacity="0.15" fill-rule="evenodd" clip-rule="evenodd" d="M1400.5 274C1426.73 274 1448 252.734 1448 226.5C1448 200.266 1426.73 179 1400.5 179C1374.27 179 1353 200.266 1353 226.5C1353 252.734 1374.27 274 1400.5 274Z" fill="white"/>
<path opacity="0.15" fill-rule="evenodd" clip-rule="evenodd" d="M1148 259C1167.33 259 1183 243.33 1183 224C1183 204.67 1167.33 189 1148 189C1128.67 189 1113 204.67 1113 224C1113 243.33 1128.67 259 1148 259Z" fill="white"/>
<path opacity="0.15" fill-rule="evenodd" clip-rule="evenodd" d="M718 244C751.137 244 778 217.137 778 184C778 150.863 751.137 124 718 124C684.863 124 658 150.863 658 184C658 217.137 684.863 244 718 244Z" fill="white"/>
<path opacity="0.15" fill-rule="evenodd" clip-rule="evenodd" d="M493 219C512.33 219 528 203.33 528 184C528 164.67 512.33 149 493 149C473.67 149 458 164.67 458 184C458 203.33 473.67 219 493 219Z" fill="white"/>
<path opacity="0.15" fill-rule="evenodd" clip-rule="evenodd" d="M78 219C97.33 219 113 203.33 113 184C113 164.67 97.33 149 78 149C58.67 149 43 164.67 43 184C43 203.33 58.67 219 78 219Z" fill="white"/>
<path d="M51 183.5C51 168.864 62.8645 157 77.5 157C92.1355 157 104 168.864 104 183.5C104 198.136 92.1355 210 77.5 210C62.8645 210 51 198.136 51 183.5Z" fill="white" fill-opacity="0.3"/>
<path d="M62.7575 198.955L61.3821 200.33L60.4774 199.423L61.8498 198.048L58.2961 194.496C57.7195 193.918 57.6405 193.809 56.921 194.182C56.6574 194.324 56.373 194.322 56.1562 194.103C55.7027 193.649 56.187 193.105 56.25 193.041L60.6683 188.623C60.7307 188.561 61.2756 188.077 61.7295 188.529C61.949 188.749 61.9508 189.03 61.8097 189.295C61.434 190.014 61.5443 190.092 62.1227 190.67L70.3215 198.87C70.8993 199.45 70.978 199.56 71.6975 199.183C71.9635 199.044 72.2434 199.045 72.4635 199.263C72.9159 199.717 72.4337 200.264 72.3718 200.327L67.9524 204.744C67.889 204.806 67.3423 205.29 66.889 204.838C66.6713 204.618 66.6707 204.336 66.8094 204.071C67.1861 203.352 67.0757 203.274 66.4973 202.695L62.7575 198.955ZM62.6978 210H60.8954L60.9095 209.972C61.2829 209.256 61.1743 209.176 60.5962 208.597L52.396 200.399C51.8157 199.818 51.7388 199.709 51.0202 200.083C51.0136 200.087 51.0066 200.09 51 200.093V198.29L54.7669 194.524C54.8293 194.464 55.3755 193.978 55.8278 194.43C56.0467 194.65 56.0489 194.931 55.9083 195.196C55.5323 195.917 55.642 195.994 56.2226 196.574L64.4216 204.772C65.0006 205.353 65.0778 205.462 65.7973 205.087C66.0627 204.945 66.3444 204.945 66.5633 205.166C67.016 205.62 66.5323 206.165 66.4704 206.228L62.6978 210ZM85.2096 164.081L89.3293 159.96L101.035 171.661L96.9137 175.785C96.851 175.847 96.3031 176.331 95.8507 175.878C95.6312 175.658 95.6312 175.376 95.7717 175.112C96.1457 174.393 96.038 174.314 95.4581 173.735L87.2572 165.536C86.6782 164.958 86.601 164.848 85.8815 165.223C85.6155 165.364 85.3341 165.364 85.1161 165.144C84.6622 164.692 85.1472 164.143 85.2096 164.081ZM92.2904 157H94.7419L96.6912 158.951C96.7702 159.028 97.0528 159.343 96.5835 159.809C96.3172 160.076 96.0829 159.998 95.7708 159.842C94.0983 158.977 92.535 159.01 90.9409 160.164L90.0326 159.258L92.2904 157ZM104 166.041V168.698L101.737 170.959L100.831 170.053C101.94 168.631 102.045 166.803 101.216 165.131C101.09 164.786 100.933 164.441 101.214 164.162C101.714 163.661 102.136 164.178 102.198 164.242L104 166.041ZM95.2606 164.483C95.7443 163.655 95.43 162.749 94.9756 162.013C94.7913 161.671 94.6327 161.324 94.9596 160.997C95.4433 160.515 95.9315 161.155 96.0564 161.28L99.4343 164.659C99.5597 164.783 100.201 165.27 99.7177 165.754C99.3887 166.083 99.0455 165.923 98.6993 165.736C97.9641 165.283 97.0582 164.971 96.2304 165.452L95.2606 164.483ZM80.7352 208.068L78.8022 210H77.7744C77.8016 209.939 77.8344 209.876 77.8667 209.809C77.9831 209.59 77.7271 209.369 77.5959 209.237L72.9849 204.627C72.8522 204.495 72.6333 204.24 72.4135 204.356C72.1761 204.47 71.9825 204.611 71.7615 204.391C71.5335 204.163 71.7268 203.915 71.9029 203.741L74.155 201.489L80.7352 208.068ZM95.4771 180.165L97.6327 178.009L103.228 183.604C103.552 183.93 103.598 183.991 104 183.781V184.804L101.891 186.911C101.856 186.946 101.548 187.22 101.293 186.964C101.17 186.842 101.169 186.683 101.249 186.534C101.461 186.129 101.398 186.086 101.074 185.761L95.4771 180.165ZM101.346 178.396C101.381 178.432 101.574 178.677 101.31 178.941C101.064 179.186 100.791 179.003 100.572 178.834C100.026 178.449 99.3221 177.992 98.5401 178.124L98.0296 177.614L99.2958 176.346L101.346 178.396ZM93.8163 181.827L95.0826 180.561L95.5932 181.07C95.4602 181.854 95.9177 182.557 96.3052 183.102C96.4723 183.322 96.6556 183.595 96.4101 183.84C96.1469 184.105 95.9011 183.912 95.8646 183.876L93.8163 181.827ZM66.9617 183.674C66.4931 184.673 66.9008 185.205 67.2925 185.596L75.3969 193.701C75.788 194.093 76.3206 194.499 77.3194 194.031L78.2268 194.94C74.6194 197.952 70.3993 196.823 67.2847 193.71C64.1719 190.595 63.0416 186.373 66.0543 182.767L66.9617 183.674ZM78.0232 193.33C78.491 192.331 78.0838 191.797 77.6903 191.407L69.5878 183.301C69.1957 182.911 68.6631 182.504 67.6653 182.973L66.7572 182.066C70.3634 179.052 74.5856 180.181 77.6987 183.295C80.8121 186.409 81.9424 190.629 78.9291 194.237L78.0232 193.33ZM95.2756 176.452C95.0555 176.236 94.775 176.233 94.5087 176.375C93.7895 176.748 93.7129 176.64 93.133 176.06L84.9337 167.862C84.3534 167.283 84.2434 167.205 84.6203 166.485C84.7581 166.22 84.7581 165.938 84.5401 165.719C84.0865 165.265 83.5407 165.75 83.4786 165.812L79.3562 169.933L82.7229 176.173L82.6906 176.203L76.2192 173.072L72.2551 177.036C72.0685 177.223 71.5977 177.691 72.082 178.177C72.4572 178.553 72.9113 178.163 73.1134 177.989C73.3957 177.741 73.6472 177.866 74.0202 177.96C74.3486 178.039 74.6613 178.196 74.9747 178.354L87.9204 184.774L88.3727 184.323L82.0404 172.619L89.307 179.885C89.886 180.465 89.9955 180.544 89.6203 181.261C89.4783 181.528 89.4807 181.808 89.702 182.027C90.1535 182.48 90.7005 181.998 90.7636 181.934L95.1846 177.515C95.247 177.452 95.728 176.905 95.2756 176.452ZM83.0452 184.706L80.3543 182.016L76.8993 180.308L76.8679 180.34L82.1393 185.612C83.8453 187.818 82.2373 188.207 82.911 188.881C83.3954 189.365 84.0036 188.693 84.1746 188.521L85.9548 186.742C86.1255 186.57 86.7958 185.964 86.3106 185.479C85.6378 184.805 85.2503 186.413 83.0452 184.706ZM74.5501 201.091C76.0274 199.577 78.3142 199.367 80.6906 201.533C82.854 203.502 82.5911 206.211 81.1306 207.672L80.6209 207.161C81.0875 206.553 80.6122 206.025 80.2762 205.692L76.5299 201.944C76.1951 201.61 75.6674 201.135 75.0612 201.601L74.5501 201.091ZM77.8308 197.811L80.1523 195.489L86.7322 202.07L84.4107 204.391C84.3755 204.426 84.0669 204.699 83.8121 204.444C83.6897 204.321 83.6891 204.162 83.7681 204.013C83.9801 203.609 83.9183 203.565 83.5938 203.239L78.9843 198.629C78.6586 198.305 78.6137 198.243 78.2105 198.453C78.0603 198.534 77.9023 198.533 77.778 198.41C77.5223 198.156 77.7955 197.846 77.8308 197.811ZM80.5483 195.093L82.5096 193.132L84.2955 194.916C84.3396 194.96 84.4991 195.136 84.2346 195.401C84.0844 195.55 83.9539 195.507 83.7771 195.419C82.8347 194.935 81.9566 194.953 81.0576 195.602L80.5483 195.093ZM86.6179 201.163C87.2422 200.363 87.3046 199.334 86.8378 198.391C86.7687 198.198 86.6788 198.005 86.8368 197.847C87.1197 197.565 87.3574 197.855 87.392 197.891L89.1526 199.651L87.1294 201.674L86.6179 201.163ZM83.4864 198.031C83.759 197.566 83.5835 197.057 83.329 196.643C83.2223 196.448 83.1342 196.254 83.32 196.069C83.5929 195.798 83.8664 196.159 83.9367 196.229L85.8375 198.13C85.9065 198.199 86.2681 198.472 85.9943 198.745C85.8112 198.93 85.617 198.842 85.4228 198.736C85.01 198.482 84.5 198.305 84.0338 198.578L83.4864 198.031ZM85.905 189.737C86.741 188.901 87.3212 188.495 87.9732 188.321C89.0115 188.056 89.8474 188.382 90.5872 189.119C91.3245 189.858 91.6502 190.695 91.3863 191.733C91.2096 192.385 90.8055 192.966 89.9692 193.801L89.4593 193.292C89.8815 192.674 89.5486 192.288 89.1176 191.855L87.7892 190.527C87.3932 190.132 86.9527 189.85 86.4153 190.247L85.905 189.737ZM84.3387 193.275C84.0136 192.949 83.9692 192.888 83.5642 193.098C83.4153 193.178 83.2569 193.176 83.1336 193.053C82.8791 192.799 83.152 192.49 83.1867 192.455L85.509 190.134L91.1052 195.73C91.4291 196.054 91.4741 196.117 91.8785 195.905C92.0286 195.826 92.1864 195.825 92.3103 195.949C92.5666 196.204 92.2931 196.512 92.2578 196.546L89.7681 199.037C89.7334 199.073 89.4943 199.276 89.2385 199.021C89.1161 198.898 89.0941 198.76 89.1731 198.61C89.3845 198.206 89.2738 198.21 88.9487 197.884L84.3387 193.275Z" fill="white"/>
<path d="M91.4812 184.919C91.2167 185.482 91.4447 185.78 91.6643 185.999L96.2219 190.556C96.4417 190.776 96.7415 191.005 97.3036 190.74L97.8138 191.25C95.7822 192.949 93.4067 192.316 91.6564 190.565C89.9046 188.814 89.2719 186.439 90.9695 184.407L91.4812 184.919ZM97.6998 190.345C97.9637 189.783 97.7351 189.484 97.515 189.263L92.9586 184.707C92.7384 184.487 92.4396 184.259 91.8766 184.521L91.3672 184.012C93.3998 182.313 95.7746 182.948 97.524 184.698C99.2755 186.449 99.91 188.822 98.2113 190.856L97.6998 190.345ZM57.3512 177.069L59.3769 175.043L64.6356 180.302C64.9417 180.608 64.983 180.666 65.3633 180.467C65.5038 180.392 65.6525 180.392 65.7683 180.509C66.0081 180.748 65.7517 181.037 65.7188 181.07L63.379 183.411C63.3458 183.443 63.0566 183.7 62.8169 183.46C62.7008 183.344 62.7008 183.196 62.7755 183.055C62.9737 182.674 62.9161 182.633 62.61 182.327L57.3512 177.069ZM62.8663 175.407C62.8995 175.44 63.081 175.671 62.8331 175.919C62.6012 176.151 62.3449 175.977 62.1386 175.82C61.626 175.456 60.9643 175.026 60.2285 175.15L59.749 174.67L60.9399 173.48L62.8663 175.407ZM55.7882 178.631L56.9791 177.44L57.4583 177.92C57.3343 178.656 57.7641 179.318 58.1281 179.831C58.2852 180.037 58.4589 180.294 58.2276 180.525C57.9791 180.773 57.7478 180.591 57.7146 180.558L55.7882 178.631ZM68.9351 176.002C69.2415 176.308 69.2825 176.366 69.6631 176.167C69.8033 176.093 69.9523 176.093 70.0684 176.209C70.3075 176.449 70.0512 176.738 70.0183 176.771L67.6787 179.111C67.6456 179.144 67.3561 179.401 67.1163 179.161C67.0011 179.045 67.0005 178.896 67.0753 178.755C67.2737 178.375 67.2158 178.334 66.91 178.028L62.5768 173.695C62.271 173.389 62.2294 173.331 61.8491 173.53C61.7083 173.604 61.5596 173.604 61.4441 173.488C61.2044 173.248 61.4607 172.959 61.4936 172.926L63.8337 170.586C63.8669 170.553 64.1561 170.297 64.3959 170.536C64.512 170.652 64.512 170.801 64.4369 170.942C64.2388 171.322 64.2967 171.363 64.6027 171.669L68.9351 176.002ZM68.0587 172.926L67.331 173.654L66.8515 173.174L67.5792 172.447L65.7023 170.569C65.3962 170.264 65.3549 170.205 64.9746 170.404C64.834 170.479 64.6854 170.479 64.5693 170.363C64.3295 170.123 64.5862 169.834 64.619 169.8L66.9589 167.461C66.9921 167.428 67.2816 167.171 67.5213 167.411C67.6368 167.527 67.6368 167.676 67.5626 167.816C67.3642 168.196 67.4221 168.238 67.7279 168.544L72.0605 172.876C72.3666 173.183 72.4076 173.24 72.7882 173.042C72.9287 172.968 73.0774 172.968 73.1932 173.083C73.4333 173.323 73.1766 173.613 73.1441 173.645L70.8039 175.986C70.771 176.019 70.4818 176.275 70.2415 176.035C70.126 175.92 70.126 175.771 70.2002 175.63C70.3986 175.249 70.3407 175.208 70.0349 174.902L68.0587 172.926ZM67.7381 166.682L69.9212 164.499L76.1061 170.683L73.9233 172.866C73.8904 172.899 73.6012 173.155 73.3609 172.916C73.2454 172.8 73.2454 172.651 73.3196 172.511C73.518 172.13 73.4604 172.089 73.1543 171.783L68.8214 167.45C68.5156 167.144 68.474 167.086 68.0937 167.284C67.9532 167.359 67.8045 167.359 67.6887 167.243C67.4489 167.004 67.7053 166.714 67.7381 166.682ZM70.2939 164.126L72.1374 162.283L73.8157 163.961C73.8567 164.003 74.0053 164.168 73.7581 164.416C73.6172 164.556 73.4936 164.515 73.3283 164.432C72.4429 163.978 71.616 163.994 70.7731 164.606L70.2939 164.126ZM75.9987 169.832C76.5853 169.079 76.6438 168.112 76.2056 167.227C76.1389 167.045 76.0563 166.863 76.2056 166.714C76.4698 166.45 76.6932 166.722 76.7264 166.756L78.3799 168.409L76.4782 170.311L75.9987 169.832ZM73.0551 166.888C73.3114 166.45 73.1459 165.97 72.9061 165.582C72.8072 165.4 72.7243 165.218 72.898 165.044C73.1546 164.788 73.4109 165.126 73.477 165.193L75.2629 166.979C75.3292 167.045 75.6679 167.302 75.4122 167.558C75.2381 167.731 75.056 167.649 74.8742 167.549C74.4854 167.31 74.0059 167.145 73.5678 167.401L73.0551 166.888Z" fill="white"/>
<path opacity="0.15" fill-rule="evenodd" clip-rule="evenodd" d="M1438 119C1471.14 119 1498 92.1371 1498 59C1498 25.8629 1471.14 -1 1438 -1C1404.86 -1 1378 25.8629 1378 59C1378 92.1371 1404.86 119 1438 119Z" fill="white"/>
<path opacity="0.15" fill-rule="evenodd" clip-rule="evenodd" d="M1273 189C1306.14 189 1333 162.137 1333 129C1333 95.8629 1306.14 69 1273 69C1239.86 69 1213 95.8629 1213 129C1213 162.137 1239.86 189 1273 189Z" fill="white"/>
<path opacity="0.15" fill-rule="evenodd" clip-rule="evenodd" d="M1068 164C1101.14 164 1128 137.137 1128 104C1128 70.8629 1101.14 44 1068 44C1034.86 44 1008 70.8629 1008 104C1008 137.137 1034.86 164 1068 164Z" fill="white"/>
<path opacity="0.15" fill-rule="evenodd" clip-rule="evenodd" d="M900.5 194C926.734 194 948 172.734 948 146.5C948 120.266 926.734 99 900.5 99C874.266 99 853 120.266 853 146.5C853 172.734 874.266 194 900.5 194Z" fill="white"/>
<path d="M918.684 164.06C897.516 173.954 884.527 165.618 876.149 160.523C875.628 160.202 874.736 160.523 875.505 161.463C878.305 164.852 887.452 172.989 899.375 172.989C903.041 173.091 906.692 172.468 910.117 171.157C913.541 169.845 916.672 167.87 919.328 165.346C920.196 164.233 919.576 163.615 918.684 163.986V164.06ZM924.608 160.795C924.038 160.053 921.162 159.905 919.353 160.127C917.543 160.35 914.817 161.463 915.065 162.131C915.189 162.378 915.437 162.131 916.676 162.131C917.915 162.131 921.435 161.562 922.154 162.502C922.873 163.442 921.038 168.018 920.691 168.76C920.344 169.502 920.691 169.699 921.435 169.205C922.526 168.225 923.375 167.006 923.914 165.643C924.683 164.115 924.943 162.382 924.657 160.696L924.608 160.795Z" fill="white"/>
<path fill-rule="evenodd" clip-rule="evenodd" d="M904.5 143.555C904.76 146.009 904.322 148.487 903.236 150.704C902.804 151.583 902.144 152.331 901.324 152.871C900.505 153.41 899.556 153.721 898.576 153.771C896.097 153.771 894.461 151.792 894.461 148.824C894.461 143.085 899.617 142.022 904.5 142.022V143.555ZM911.316 159.979C911.099 160.161 910.832 160.275 910.549 160.305C910.267 160.336 909.982 160.283 909.73 160.152C908.168 158.901 906.849 157.375 905.838 155.65C904.512 157.3 902.81 158.609 900.874 159.469C898.938 160.33 896.825 160.716 894.709 160.597C893.323 160.679 891.935 160.46 890.642 159.955C889.349 159.45 888.182 158.671 887.22 157.671C886.259 156.671 885.526 155.476 885.073 154.166C884.62 152.856 884.457 151.464 884.596 150.085C884.505 147.724 885.15 145.394 886.442 143.414C887.734 141.434 889.609 139.902 891.809 139.029C895.901 137.612 900.174 136.779 904.5 136.556V135.814C904.719 134.12 904.435 132.4 903.682 130.867C903.242 130.315 902.679 129.873 902.038 129.577C901.397 129.281 900.695 129.138 899.989 129.16C898.728 129.036 897.466 129.382 896.445 130.131C895.425 130.88 894.718 131.979 894.461 133.217C894.461 133.81 893.891 134.428 893.296 134.453L886.727 133.736C886.567 133.712 886.413 133.656 886.274 133.572C886.136 133.488 886.016 133.376 885.921 133.245C885.826 133.114 885.759 132.965 885.723 132.807C885.687 132.649 885.683 132.485 885.711 132.326C887.223 124.485 894.411 122.012 900.831 122.012C904.523 121.866 908.143 123.061 911.019 125.376C914.315 128.443 913.993 132.524 913.993 136.976V147.488C914.004 149.803 914.889 152.029 916.472 153.721C916.704 153.965 916.833 154.288 916.833 154.624C916.833 154.96 916.704 155.283 916.472 155.527C915.084 156.665 912.63 158.816 911.291 160.004" fill="white"/>
<path opacity="0.15" fill-rule="evenodd" clip-rule="evenodd" d="M773 79C792.33 79 808 63.33 808 44C808 24.67 792.33 9 773 9C753.67 9 738 24.67 738 44C738 63.33 753.67 79 773 79Z" fill="white"/>
<path opacity="0.15" fill-rule="evenodd" clip-rule="evenodd" d="M585.5 129C611.734 129 633 107.734 633 81.5C633 55.2665 611.734 34 585.5 34C559.266 34 538 55.2665 538 81.5C538 107.734 559.266 129 585.5 129Z" fill="white"/>
<path opacity="0.15" fill-rule="evenodd" clip-rule="evenodd" d="M378 149C411.137 149 438 122.137 438 89C438 55.8629 411.137 29 378 29C344.863 29 318 55.8629 318 89C318 122.137 344.863 149 378 149Z" fill="white"/>
<path opacity="0.15" fill-rule="evenodd" clip-rule="evenodd" d="M238 184C257.33 184 273 168.33 273 149C273 129.67 257.33 114 238 114C218.67 114 203 129.67 203 149C203 168.33 218.67 184 238 184Z" fill="white"/>
<path opacity="0.15" fill-rule="evenodd" clip-rule="evenodd" d="M125.5 104C151.734 104 173 82.7335 173 56.5C173 30.2665 151.734 9 125.5 9C99.2665 9 78 30.2665 78 56.5C78 82.7335 99.2665 104 125.5 104Z" fill="white"/>
<path opacity="0.15" fill-rule="evenodd" clip-rule="evenodd" d="M-37 149C-3.86292 149 23 122.137 23 89C23 55.8629 -3.86292 29 -37 29C-70.1371 29 -97 55.8629 -97 89C-97 122.137 -70.1371 149 -37 149Z" fill="white"/>
<path opacity="0.3" fill-rule="evenodd" clip-rule="evenodd" d="M1223.23 132.029C1223.23 122.956 1245.56 115.601 1273.11 115.601C1300.67 115.601 1323 122.956 1323 132.029C1323 141.102 1300.67 148.457 1273.11 148.457C1245.56 148.457 1223.23 141.102 1223.23 132.029C1223.23 141.102 1223.23 132.029 1223.23 132.029Z" fill="white"/>
<path fill-rule="evenodd" clip-rule="evenodd" d="M1236.85 125.256H1245.72C1245.72 125.256 1245.48 125.629 1245.48 126.093V137.509C1245.48 138.129 1245.74 138.656 1245.74 138.656H1236.82C1236.82 138.656 1237.08 138.129 1237.08 137.601V126.186C1237.08 125.752 1236.85 125.256 1236.85 125.256ZM1250.13 125.287H1258.56C1258.56 125.287 1258.33 125.684 1258.33 126.051V130.147L1261.31 126.326C1261.31 126.326 1261.49 126.051 1261.49 125.776V125.348H1270.07L1266.43 130.422C1266.43 130.422 1266.25 130.636 1266.25 130.789C1266.25 130.942 1266.4 131.155 1266.4 131.155L1271.08 138.583H1260.75C1260.75 138.583 1260.93 138.308 1260.93 138.033C1260.93 137.758 1260.75 137.421 1260.75 137.421L1258.29 133.417V137.758C1258.29 138.125 1258.56 138.613 1258.56 138.613H1250.13C1250.13 138.613 1250.37 138.277 1250.37 137.91V126.051C1250.37 125.684 1250.13 125.287 1250.13 125.287ZM1273.59 125.38H1288.67V129.431C1288.67 129.431 1288.35 129.131 1287.93 129.131H1281.75V130.241H1287.13V133.812C1287.13 133.812 1286.78 133.512 1286.39 133.512H1281.69V134.742H1288.02C1288.38 134.742 1288.58 134.172 1288.58 134.172V138.613H1273.59C1273.59 138.613 1273.86 138.223 1273.86 137.953V126.37C1273.86 125.889 1273.59 125.38 1273.59 125.38ZM1295.34 125.234H1307.4C1307.4 125.234 1307.17 125.792 1307.17 126.103C1307.17 126.413 1307.37 126.971 1307.37 126.971L1312.19 138.635H1303.15C1303.15 138.635 1303.35 138.293 1303.24 138.015C1302.99 137.395 1302.74 136.775 1302.5 136.153H1298.77C1298.77 136.153 1298.03 137.797 1298.03 138.108C1298.03 138.417 1298.27 138.666 1298.27 138.666H1290.82L1295.49 126.475C1295.49 126.475 1295.67 126.226 1295.67 125.917C1295.67 125.607 1295.34 125.234 1295.34 125.234ZM1300.46 131.19L1299.57 133.579H1301.52L1300.46 131.19Z" fill="white"/>
<path fill-rule="evenodd" clip-rule="evenodd" d="M1248.59 294.525L1246.76 291.472L1245.22 288.901L1238.66 292.849L1239.66 294.525H1248.59ZM1263.77 294.525H1272.7L1261 275L1254.44 278.948L1263.77 294.525ZM1260.65 297.585C1260.02 297.178 1259.28 296.94 1258.48 296.94H1258.46C1256.26 296.954 1254.46 298.758 1254.46 300.97C1254.46 303.182 1256.26 304.986 1258.46 305H1258.48C1259.28 305 1260.02 304.763 1260.65 304.356V304.776H1262.5V294.525H1260.65V297.585ZM1260.65 301.391C1260.45 302.409 1259.55 303.188 1258.48 303.188H1258.46C1257.25 303.175 1256.27 302.184 1256.27 300.97C1256.27 299.756 1257.25 298.765 1258.46 298.758H1258.48C1259.55 298.758 1260.45 299.532 1260.65 300.549V301.391ZM1269.33 297.585C1268.69 297.163 1267.93 296.939 1267.16 296.94H1267.14C1264.94 296.954 1263.14 298.758 1263.14 300.97C1263.14 303.182 1264.94 304.986 1267.14 305H1267.16C1267.96 305 1268.71 304.763 1269.33 304.356V304.776H1271.18V297.144H1269.33V297.585ZM1269.33 301.391C1269.13 302.409 1268.23 303.188 1267.16 303.188H1267.14C1265.93 303.175 1264.95 302.184 1264.95 300.97C1264.95 299.756 1265.93 298.765 1267.14 298.758H1267.16C1268.23 298.758 1269.13 299.532 1269.33 300.549V301.391ZM1277.75 300.468C1277.69 300.434 1277.59 300.4 1277.48 300.359C1277.07 300.217 1276.4 300.04 1275.46 299.837C1274.65 299.654 1274.23 299.417 1274.23 299.118C1274.23 298.908 1274.31 298.738 1274.45 298.616C1274.64 298.453 1274.98 298.372 1275.46 298.372C1275.96 298.372 1276.32 298.48 1276.53 298.69C1276.66 298.819 1276.75 299.05 1276.81 299.376H1278.78C1278.78 298.412 1278.38 297.72 1277.61 297.3C1277.57 297.273 1277.53 297.25 1277.48 297.232C1276.95 296.981 1276.24 296.852 1275.35 296.852C1274.27 296.852 1273.46 297.137 1272.92 297.714C1272.49 298.175 1272.28 298.738 1272.28 299.403C1272.28 300.231 1272.68 300.828 1273.51 301.214C1273.82 301.364 1274.58 301.574 1275.78 301.832C1276.59 302.008 1277 302.259 1277 302.578C1277 302.768 1276.91 302.931 1276.74 303.08C1276.51 303.27 1276.18 303.365 1275.72 303.365C1275.12 303.365 1274.69 303.264 1274.44 303.067C1274.19 302.877 1274.06 302.599 1274.06 302.246H1272.01C1272.01 303.182 1272.4 303.881 1273.19 304.342C1273.82 304.702 1274.65 304.885 1275.67 304.885C1276.35 304.885 1276.96 304.77 1277.48 304.546C1277.59 304.498 1277.69 304.451 1277.79 304.397C1278.59 303.949 1279 303.237 1279 302.26C1279 301.458 1278.59 300.861 1277.75 300.468ZM1240.19 297.585C1239.54 297.164 1238.79 296.94 1238.02 296.94H1237.99C1235.79 296.954 1234 298.758 1234 300.97C1234 303.182 1235.79 304.986 1237.99 305H1238.02C1238.81 305 1239.56 304.763 1240.19 304.356V304.776H1242.04V297.144H1240.19V297.585ZM1240.19 301.391C1239.99 302.409 1239.09 303.188 1238.02 303.188H1237.99C1236.79 303.175 1235.81 302.184 1235.81 300.97C1235.81 299.756 1236.79 298.765 1237.99 298.758H1238.02C1239.09 298.758 1239.99 299.532 1240.19 300.549V301.391ZM1251.73 296.336H1253.74V294.566H1251.73V296.336ZM1251.73 304.776H1253.74V296.94H1251.73V304.776ZM1248.96 297.585C1248.31 297.164 1247.55 296.94 1246.78 296.94H1246.76C1244.56 296.954 1242.76 298.758 1242.76 300.97C1242.76 303.182 1244.56 304.986 1246.76 305H1246.78C1247.55 305 1248.31 304.776 1248.96 304.356V304.776H1250.81V294.525H1248.96V297.585ZM1248.96 301.391C1248.76 302.409 1247.86 303.188 1246.78 303.188H1246.76C1245.55 303.175 1244.57 302.184 1244.57 300.97C1244.57 299.756 1245.55 298.765 1246.76 298.758H1246.78C1247.86 298.758 1248.76 299.532 1248.96 300.549V301.391ZM1260.64 294.525L1258.46 290.875L1253.11 281.947L1246.76 285.773L1246.55 285.902L1246.76 286.262L1251.72 294.525H1260.64Z" fill="white"/>
<path d="M387 243.781C387 241.14 384.82 239 382.132 239H359.868C357.18 239 355 241.14 355 243.781C355 246.423 357.18 248.563 359.868 248.563H382.132C384.82 248.563 387 246.423 387 243.781Z" fill="white"/>
<path d="M384.763 256.311C384.763 253.67 382.583 251.529 379.894 251.529L362.692 251.529C358.708 251.529 355.48 254.701 355.48 258.613V269.219C355.48 271.859 357.659 274 360.348 274C363.036 274 365.216 271.859 365.216 269.219V262.987C365.257 261.936 366.142 261.096 367.223 261.092H379.894C382.583 261.092 384.763 258.952 384.763 256.311Z" fill="white"/>
<path fill-rule="evenodd" clip-rule="evenodd" d="M175.049 296.287L172.287 291.708L169.953 287.851L160.039 293.774L161.553 296.287H175.049ZM197.988 296.287H211.484L193.794 267L183.889 272.922L197.988 296.287ZM193.272 300.877C192.32 300.267 191.205 299.91 189.997 299.91H189.967C186.631 299.931 183.92 302.637 183.92 305.955C183.92 309.273 186.631 311.979 189.967 312H189.997C191.205 312 192.32 311.644 193.272 311.033V311.664H196.065V296.288H193.272V300.877ZM193.272 306.586C192.975 308.113 191.614 309.283 189.997 309.283H189.967C188.135 309.262 186.652 307.777 186.652 305.955C186.652 304.134 188.135 302.648 189.967 302.637H189.997C191.614 302.637 192.975 303.798 193.272 305.324V306.586ZM206.389 300.877C205.415 300.245 204.277 299.909 203.115 299.91H203.083C199.748 299.931 197.037 302.637 197.037 305.955C197.037 309.273 199.748 311.979 203.083 312H203.115C204.322 312 205.447 311.644 206.389 311.033V311.664H209.182V300.215H206.389V300.877ZM206.389 306.586C206.092 308.113 204.731 309.283 203.115 309.283H203.083C201.253 309.262 199.769 307.777 199.769 305.955C199.769 304.134 201.253 302.648 203.083 302.637H203.115C204.731 302.637 206.092 303.798 206.389 305.324V306.586ZM219.117 305.202C219.015 305.151 218.871 305.1 218.707 305.039C218.083 304.825 217.07 304.561 215.658 304.256C214.42 303.98 213.796 303.625 213.796 303.177C213.796 302.861 213.908 302.607 214.123 302.424C214.41 302.179 214.921 302.057 215.658 302.057C216.405 302.057 216.947 302.22 217.265 302.536C217.459 302.729 217.602 303.075 217.694 303.563H220.662C220.662 302.118 220.068 301.081 218.902 300.45C218.84 300.41 218.775 300.376 218.707 300.348C217.899 299.971 216.824 299.778 215.484 299.778C213.857 299.778 212.63 300.206 211.812 301.07C211.157 301.762 210.84 302.607 210.84 303.604C210.84 304.846 211.453 305.741 212.702 306.322C213.172 306.545 214.318 306.861 216.14 307.248C217.357 307.512 217.971 307.889 217.971 308.367C217.971 308.652 217.848 308.896 217.582 309.12C217.244 309.405 216.733 309.548 216.047 309.548C215.137 309.548 214.492 309.395 214.114 309.1C213.735 308.816 213.54 308.398 213.54 307.869H210.43C210.43 309.274 211.024 310.322 212.22 311.013C213.172 311.552 214.421 311.828 215.966 311.828C216.999 311.828 217.92 311.654 218.708 311.319C218.872 311.248 219.015 311.176 219.168 311.095C220.386 310.423 221 309.355 221 307.89C221 306.688 220.375 305.792 219.117 305.202ZM162.352 300.877C161.374 300.246 160.233 299.911 159.067 299.91H159.036C155.711 299.931 153 302.637 153 305.955C153 309.273 155.711 311.979 159.036 312H159.067C160.275 312 161.4 311.644 162.352 311.033V311.664H165.145V300.215H162.352V300.877ZM162.352 306.586C162.055 308.113 160.694 309.283 159.067 309.283H159.036C157.215 309.262 155.732 307.777 155.732 305.955C155.732 304.134 157.215 302.648 159.036 302.637H159.067C160.694 302.637 162.055 303.798 162.352 305.324V306.586ZM179.786 299.005H182.825V296.348H179.786V299.005ZM179.786 311.664H182.825V299.91H179.786V311.664ZM175.602 300.877C174.624 300.246 173.483 299.91 172.317 299.91H172.287C168.951 299.931 166.24 302.637 166.24 305.955C166.24 309.273 168.951 311.979 172.287 312H172.317C173.483 312 174.624 311.664 175.602 311.033V311.664H178.395V296.288H175.602V300.877ZM175.602 306.586C175.305 308.113 173.944 309.283 172.317 309.283H172.287C170.455 309.262 168.971 307.777 168.971 305.955C168.971 304.134 170.455 302.648 172.287 302.637H172.317C173.944 302.637 175.305 303.798 175.602 305.324V306.586ZM193.261 296.287L189.967 290.813L181.874 277.421L172.287 283.16L171.959 283.353L172.287 283.893L179.776 296.287H193.261Z" fill="white"/>
<path d="M697.29 189.431H703.502L712.654 165H706.886L702.775 175.957L703.484 165H697.346L688.194 189.431H693.962L697.996 178.622L697.29 189.431Z" fill="white"/>
<path d="M713.403 165L704.251 189.431H710.019L719.171 165H713.403Z" fill="white"/>
<path fill-rule="evenodd" clip-rule="evenodd" d="M687.529 181.01C679.469 190.487 671.865 203.096 678.581 208.903C685.032 214.48 693.227 211.197 698.77 208.977C704.316 206.756 765.621 180.103 765.621 180.103C766.212 179.807 766.102 179.437 765.362 179.622C765.236 179.653 753.358 182.874 739.657 186.591L740.338 184.693H733.609L735.819 178.771H741.365L743.072 174.218H737.526L739.427 169.072H745.268L746.818 165H729.218L723.175 172.33L725.965 165H720.123L711.044 189.431H716.812L720.689 179.215L720.954 189.431L729.252 189.413C713.528 193.679 698.622 197.723 698.622 197.723C690.191 200.092 680.578 194.928 687.529 181.01ZM726.676 187.802L726.307 175.069L735.028 165.482L726.676 187.802Z" fill="white"/>
<path fill-rule="evenodd" clip-rule="evenodd" d="M1406.53 44.4193C1398.47 53.7708 1390.87 66.2136 1397.58 71.9435C1404.09 77.4961 1412.22 74.2085 1417.77 72.0167C1423.32 69.8248 1484.62 43.5241 1484.62 43.5241C1485.21 43.2319 1485.1 42.8665 1484.36 43.0489C1484.06 43.1226 1417.62 60.9114 1417.62 60.9114C1409.19 63.2496 1399.58 58.1536 1406.53 44.4193Z" fill="white"/>
<path fill-rule="evenodd" clip-rule="evenodd" d="M358.503 76.7271C360.436 76.7271 362.002 78.2711 362.002 80.1762C362.002 82.0817 360.436 83.6256 358.503 83.6256H342.5C340.567 83.6256 339 82.0817 339 80.1762C339 78.2711 340.567 76.7271 342.499 76.7271H358.503ZM356.894 85.7655C358.827 85.7655 360.394 87.3097 360.394 89.2149C360.394 91.12 358.827 92.6642 356.894 92.6642H347.786C347.009 92.667 346.373 93.2728 346.343 94.0308V98.5265C346.343 100.431 344.777 101.976 342.844 101.976C340.912 101.976 339.345 100.431 339.345 98.5265V90.8756C339.345 88.0535 341.666 85.7654 344.529 85.7654L356.894 85.7655ZM363.592 79.4494C363.592 77.5444 365.158 76 367.091 76C369.024 76 370.59 77.5444 370.59 79.4494V98.5506C370.59 100.456 369.024 102 367.091 102C365.158 102 363.592 100.456 363.592 98.5506V79.4494ZM406.662 95.1584L408.068 95.1549C408.355 95.1547 408.588 94.9251 408.589 94.6418C408.591 94.5744 408.578 94.5074 408.552 94.4452L403.323 85.7839L395.154 99.7266C394.523 100.805 393.389 101.42 392.213 101.45C392.178 101.455 392.143 101.458 392.108 101.458H378.813C375.95 101.458 373.629 99.1698 373.629 96.3477V79.4496C373.629 77.5446 375.196 76.0001 377.128 76.0001C379.061 76.0001 380.628 77.5446 380.628 79.4495V93.1369C380.63 93.903 381.245 94.5302 382.014 94.5587H389.451C389.642 94.5007 390.227 94.3047 390.405 94.0318L399.746 78.093C400.455 76.8933 401.774 76.0857 403.283 76.0857C404.793 76.0857 406.112 76.8946 406.817 78.0967L415.92 93.1601C416.622 94.06 417.002 95.1639 417 96.2992C417 99.1482 414.657 101.458 411.767 101.458H401.157C399.391 101.458 397.962 100.047 397.962 98.3076C397.962 96.5685 399.392 95.1584 401.157 95.1584H406.662Z" fill="white"/>
<path fill-rule="evenodd" clip-rule="evenodd" d="M220.972 134.141C221.243 134.097 221.694 135.103 221.964 135.014C222.249 134.915 222.647 134.069 223.036 134.119C223.202 134.141 223.862 135.475 223.862 135.475C229.181 135.74 235.748 142.246 236.594 142.904C237.001 143.222 238.723 145.02 241.871 146.413C243.166 146.987 244.466 147.233 245.671 147.143C247.28 147.026 249.079 145.6 250.186 143.659C251.574 141.23 252.163 136.999 256.168 134.601C256.728 134.265 257.999 133.515 258.733 134.46C259.324 135.226 258.835 136.49 258.221 137.095C257.831 137.477 257.126 137.864 255.784 138.501C255.33 138.72 254.589 139.28 254.3 139.508C252.862 140.612 251.82 143.122 250.662 145.87C250.662 145.87 250.167 147.22 247.991 148.672C247.623 148.912 247.954 149.117 248.355 149.634C248.867 150.319 249.896 153.108 249.762 157.352C249.741 158.105 250.043 158.432 250.383 159.049C250.971 160.113 252.135 159.875 252.106 161.271C252.066 163.145 253.439 163.545 252.998 164.41C252.676 165.04 252.788 165.652 252.789 166.267C252.789 166.578 252.956 167.031 252.319 166.998C249.709 166.839 249.883 163.307 249.932 162.091C249.974 161.93 249.854 161.642 249.834 161.628C249.704 161.534 248.079 160.258 247.971 160.15C245.997 158.124 244.695 156.303 243.968 154.431C243.486 153.183 242.99 151.953 242.143 151.162C241.193 150.289 240.031 149.797 239.01 149.791C231.749 149.753 230.255 146.539 228.28 144.937C228.22 144.893 228.04 144.79 227.936 144.781C227.825 144.789 227.739 144.921 227.667 144.983C226.905 145.79 226.136 146.053 225.103 146.053C222.65 146.053 220.011 143.883 219.546 144.366C219.191 144.744 219.5 145.52 218.847 145.65C217.903 145.84 216.927 144.9 217.004 144.104C217.147 142.678 218.592 142.26 219.86 142.115C220.91 142.003 221.767 142.292 221.963 142.315C222.548 142.398 222.65 141.683 222.555 141.222C222.445 140.722 221.983 140.618 221.501 140.473C220.914 140.296 220.26 140.788 219.822 140.638C219.307 140.452 219.266 140.187 218.843 139.804C218.299 139.328 217.673 139.199 217.674 138.527C217.674 137.905 218.423 137.855 218.637 137.284C218.746 136.998 218.715 136.701 218.811 136.527C219.065 136.062 219.54 136.084 219.922 135.708C220.442 135.184 220.702 134.182 220.972 134.141Z" fill="white"/>
<path fill-rule="evenodd" clip-rule="evenodd" d="M115.377 61.5953L114.896 62.4386L105.835 61.9351L115.377 61.5953ZM114.236 63.6005L113.765 64.4461L104.67 63.9408L114.236 63.6005ZM113.094 65.6226L112.625 66.4629L103.541 65.958L113.094 65.6226ZM111.976 67.6346L111.484 68.4793L102.411 67.9753L111.976 67.6346ZM123.669 51.4736L123.704 52.5858L111.49 51.907L123.669 51.4736ZM123.592 49.4834L123.627 50.4967L112.651 49.8672L123.592 49.4834ZM123.514 47.5638L123.561 48.4284L113.766 47.8845L123.514 47.5638ZM123.449 45.5931L123.482 46.3855L114.904 45.8788L123.449 45.5931ZM123.393 44L123.404 44.3948L115.961 44H123.393ZM110.824 69.6456L110.629 69.9912H101.282L110.824 69.6456ZM143.163 44.0643C148.507 44.0759 149.654 47.2643 148.967 50.3844C148.209 53.8187 144.38 56.3026 142.177 56.8075C146.123 58.0918 146.123 60.661 145.296 63.5051C144.47 66.3498 140.066 69.9282 135.158 69.9282H116.647L116.624 69.3767L122.301 69.1713C122.416 69.1713 122.416 69.0334 122.335 69.0218L116.6 68.7033L116.555 67.4203L123.425 67.1749C123.562 67.1749 123.539 67.0259 123.459 67.0148L116.52 66.6293L116.485 65.4629L124.559 65.1794C124.697 65.1794 124.663 65.0188 124.583 65.0073L116.439 64.5548L116.394 63.4918L125.717 63.1604C125.844 63.1604 125.809 63.0229 125.741 63.0114L116.359 62.4901L116.325 61.5398L126.853 61.1645C126.991 61.1645 126.933 61.0154 126.876 61.0039L107.058 59.9032L127.978 59.1588C128.149 59.1473 128.07 58.9982 127.989 58.9867L108.17 57.8855L129.124 57.1287C129.262 57.1287 129.239 56.9796 129.148 56.9796L109.329 55.8789L130.248 55.1332C130.386 55.1332 130.397 54.9726 130.271 54.9726L110.452 53.8715L131.338 53.1718C131.476 53.1718 131.463 53.0454 131.36 53.0339L124.548 52.6554L125.248 51.4452L132.497 51.187C132.635 51.187 132.646 51.0495 132.497 51.0379L125.696 50.648L126.384 49.4226L133.632 49.1684C133.781 49.1684 133.781 49.042 133.632 49.0305L126.808 48.6516L127.484 47.4799L134.744 47.2412C134.824 47.2412 134.847 47.1153 134.755 47.1037L127.92 46.7L128.62 45.4764L135.868 45.2342C135.983 45.2342 135.983 45.1198 135.902 45.1198L129.021 44.7546L129.411 44.0643H143.163ZM133.851 63.9838C137.842 63.9838 139.953 58.295 135.595 58.295H131.374L128.163 63.9838H133.851ZM141.214 51.7797C141.397 51.0921 141.305 49.5322 138.553 49.4404H136.397L133.69 54.2113H137.911C139.653 54.2113 141.03 52.4678 141.214 51.7797Z" fill="white"/>
<path fill-rule="evenodd" clip-rule="evenodd" d="M-56.747 76.7271C-54.8392 76.7271 -53.2925 78.2711 -53.2925 80.1762C-53.2925 82.0817 -54.8392 83.6256 -56.747 83.6256H-72.5453C-74.4533 83.6256 -76 82.0817 -76 80.1762C-76 78.2711 -74.4533 76.7271 -72.5454 76.7271H-56.747ZM-58.335 85.7655C-56.4268 85.7655 -54.8802 87.3097 -54.8802 89.2149C-54.8802 91.12 -56.4268 92.6642 -58.335 92.6642H-67.3268C-68.0937 92.667 -68.7214 93.2728 -68.7508 94.0308V98.5265C-68.7508 100.431 -70.2974 101.976 -72.205 101.976C-74.113 101.976 -75.6596 100.431 -75.6596 98.5265V90.8756C-75.6596 88.0535 -73.3685 85.7654 -70.542 85.7654L-58.335 85.7655ZM-51.7237 79.4494C-51.7237 77.5444 -50.177 76 -48.2691 76C-46.3609 76 -44.8145 77.5444 -44.8145 79.4494V98.5506C-44.8145 100.456 -46.3608 102 -48.2691 102C-50.1769 102 -51.7237 100.456 -51.7237 98.5506V79.4494ZM-9.2057 95.1584L-7.81741 95.1549C-7.53373 95.1547 -7.30384 94.9251 -7.30363 94.6418C-7.30153 94.5744 -7.31392 94.5074 -7.33997 94.4452L-12.502 85.7839L-20.5663 99.7266C-21.1893 100.805 -22.3079 101.42 -23.4688 101.45C-23.5034 101.455 -23.5383 101.458 -23.5733 101.458H-36.6974C-39.524 101.458 -41.8153 99.1698 -41.8153 96.3477V79.4496C-41.8153 77.5446 -40.2685 76.0001 -38.3607 76.0001C-36.4531 76.0001 -34.9062 77.5446 -34.9062 79.4495V93.1369C-34.9037 93.903 -34.2971 94.5302 -33.5374 94.5587H-26.1959C-26.007 94.5007 -25.4296 94.3047 -25.2537 94.0318L-16.0323 78.093C-15.3326 76.8933 -14.031 76.0857 -12.5412 76.0857C-11.0507 76.0857 -9.74883 76.8946 -9.05219 78.0967L-0.0666046 93.1601C0.626595 94.06 1.00167 95.1639 0.999992 96.2992C0.999992 99.1482 -1.31308 101.458 -4.16592 101.458H-14.6399C-16.3828 101.458 -17.7943 100.047 -17.7943 98.3076C-17.7943 96.5685 -16.3827 95.1584 -14.6399 95.1584H-9.2057Z" fill="white"/>
<path d="M513.861 178L512.7 182.114H514.674L516.081 178H513.861ZM490.695 181.497H488.888V183.256H490.725V187.039C490.725 188.981 491.252 189.97 493.586 189.97C494.077 189.97 494.843 189.89 495.303 189.684V187.947C495.027 188.119 494.516 188.204 494.124 188.204C493.137 188.204 492.898 187.69 492.898 186.856V183.236H495.303V181.473H492.897V179.082H490.695V181.497ZM518.601 181.257C516.849 181.257 515.096 182.096 515.096 183.936C515.096 187.095 519.811 185.747 519.811 187.455C519.811 188.13 518.985 188.416 518.356 188.416C517.427 188.416 516.849 188.006 516.275 187.404L514.821 188.702C515.701 189.639 516.879 189.976 518.219 189.976C520.002 189.976 522 189.273 522 187.302C522 184.091 517.286 185.285 517.286 183.805C517.286 183.177 518.001 182.925 518.578 182.925C519.344 182.925 519.894 183.234 520.301 183.783L521.725 182.537C521.004 181.6 519.778 181.257 518.601 181.257ZM468.867 181.291H468.774C466.106 181.291 464 183.05 464 185.645C464 188.239 466.112 189.97 468.747 189.998C469.513 189.998 470.991 189.69 471.894 188.832L470.444 187.347C470.243 187.593 469.985 187.791 469.691 187.927C469.397 188.062 469.074 188.132 468.747 188.13C467.132 188.13 466.172 186.942 466.172 185.645C466.148 185.009 466.39 184.39 466.844 183.924C467.298 183.458 467.927 183.183 468.593 183.16C468.641 183.16 468.69 183.16 468.736 183.16C469.34 183.16 469.89 183.498 470.411 183.989L471.942 182.561C471.544 182.163 471.067 181.846 470.538 181.628C470.009 181.41 469.44 181.295 468.865 181.291H468.867ZM476.943 181.291C475.537 181.291 474.197 181.68 473.21 182.605L474.362 183.69C475.002 183.14 475.835 182.839 476.696 182.845C477.868 182.845 478.688 183.391 478.688 184.399V184.628H478.149C475.948 184.628 472.633 184.816 472.633 187.513C472.633 189.141 474.189 189.998 475.81 189.998C476.988 189.998 478.006 189.581 478.61 188.65H478.67V189.792H480.644V185.024C480.662 183.836 480.662 181.294 476.935 181.294L476.943 181.291ZM486.994 181.291C485.876 181.291 484.889 181.863 484.419 182.822H484.389V181.497H482.176V189.792H484.366V185.359C484.366 184.891 484.665 183.262 486.717 183.262C487.081 183.274 487.442 183.326 487.794 183.417V181.417C487.535 181.337 487.264 181.294 486.992 181.291H486.994ZM500.898 181.291C498.266 181.291 496.13 183.028 496.13 185.645C496.13 188.24 498.242 189.998 500.898 189.998C501.607 190.017 502.311 189.876 502.953 189.589C503.595 189.301 504.157 188.874 504.596 188.341L503.04 187.227C502.768 187.581 502.41 187.867 501.998 188.061C501.586 188.255 501.13 188.351 500.671 188.341C500.089 188.364 499.52 188.172 499.082 187.805C498.644 187.438 498.371 186.924 498.32 186.37H505.008V185.799C505.006 182.925 503.331 181.291 500.896 181.291H500.898ZM511.063 181.291C509.909 181.291 508.927 181.863 508.461 182.822H508.436V181.497H506.241V189.792H508.436V185.359C508.436 184.891 508.735 183.262 510.797 183.262C511.154 183.262 511.509 183.337 511.862 183.417V181.417C511.606 181.338 511.34 181.296 511.071 181.291H511.063ZM500.591 182.845C501.967 182.845 502.805 183.596 502.805 184.816H498.318C498.479 183.622 499.275 182.845 500.591 182.845ZM478.117 186.056H478.584V186.513C478.584 187.684 477.869 188.41 476.37 188.41C475.655 188.41 474.827 188.068 474.827 187.324C474.827 186.124 476.923 186.056 478.117 186.056Z" fill="white"/>
<path d="M577.769 303.844C565.874 303.844 556.221 294.206 556.221 282.309C556.221 270.391 565.874 260.76 577.769 260.76C589.674 260.76 599.316 270.391 599.316 282.309C599.316 294.206 589.674 303.844 577.769 303.844ZM577.769 250C559.937 250 545.476 264.464 545.476 282.309C545.476 300.141 559.937 314.601 577.769 314.601C595.609 314.601 610.092 300.141 610.092 282.309C610.092 264.464 595.609 250 577.769 250Z" fill="white"/>
<path d="M577.769 271.238C571.657 271.238 566.704 276.178 566.704 282.309C566.704 288.42 571.656 293.375 577.769 293.375C583.888 293.375 588.851 288.42 588.851 282.309C588.851 276.179 583.888 271.238 577.769 271.238ZM548.562 323.027H545V320.829H554.737V323.027H551.175V332.715H548.562V323.027ZM553.605 332.715H556.251L557.183 330.067H561.628L562.527 332.715H565.24L560.795 320.829H558.116L553.605 332.715ZM559.414 323.758H559.447L560.944 328.12H557.867L559.414 323.758ZM566.27 332.715H568.885V328.071H571.497C572.813 328.071 573.295 328.619 573.477 329.867C573.612 330.817 573.578 331.965 573.895 332.715H576.507C576.041 332.049 576.058 330.649 576.008 329.9C575.924 328.7 575.559 327.453 574.277 327.121V327.088C575.593 326.556 576.159 325.508 576.159 324.108C576.159 322.312 574.809 320.83 572.68 320.83H566.271L566.27 332.715ZM568.885 322.86H571.748C572.912 322.86 573.545 323.36 573.545 324.507C573.545 325.705 572.912 326.205 571.748 326.205H568.885V322.86ZM586.544 331.366C585.627 332.549 584.431 333 583.282 333C579.604 333 577.44 330.249 577.44 326.82C577.44 323.293 579.604 320.548 583.282 320.548C585.711 320.548 588.009 322.046 588.293 324.74H585.795C585.494 323.424 584.513 322.744 583.282 322.744C580.935 322.744 580.051 324.74 580.051 326.82C580.051 328.802 580.935 330.798 583.282 330.798C584.98 330.798 585.96 329.883 586.111 328.234H583.482V326.289H588.474V332.714H586.808L586.544 331.366ZM590.256 320.829H599.141V323.027H592.869V325.573H598.627V327.606H592.869V330.517H599.276V332.715H590.256V320.829ZM604.003 323.027H600.441V320.829H610.179V323.027H606.616V332.715H604.003V323.027Z" fill="white"/>
<path d="M1068.71 60L1063.3 76.7719H1045.67L1059.91 87.1445L1054.56 104L1068.71 93.6274L1082.93 104L1077.52 87.1445L1091.67 76.7719H1074.12L1068.71 60Z" fill="white"/>
<path d="M1052.72 122.009C1052.22 121.518 1051.7 121.159 1051.02 120.951C1050.39 120.705 1049.64 120.601 1048.84 120.601C1048.03 120.601 1047.29 120.743 1046.54 121.064C1045.81 121.386 1045.2 121.839 1044.71 122.331L1044.67 122.369C1044.43 122.652 1044.21 122.936 1044.04 123.248C1043.9 123.531 1043.76 123.777 1043.69 123.985C1043.62 123.843 1043.51 123.597 1043.37 123.352C1043.12 122.888 1042.91 122.539 1042.74 122.397C1042.24 121.83 1041.68 121.442 1040.94 121.13C1040.2 120.809 1039.43 120.667 1038.54 120.667C1037.97 120.667 1037.16 120.733 1036.28 121.159C1035.26 121.65 1034.41 122.425 1033.81 123.56V121.026H1033V135.166H1033.81V127.123C1033.81 126.206 1033.92 125.431 1034.13 124.722C1034.34 124.013 1034.66 123.484 1035.09 122.955C1035.44 122.463 1035.97 122.076 1036.57 121.83C1037.17 121.546 1037.81 121.405 1038.47 121.442C1039.29 121.48 1039.98 121.622 1040.63 121.905C1041.22 122.189 1041.72 122.614 1042.14 123.106C1042.49 123.597 1042.74 124.023 1042.88 124.514C1043.08 125.11 1043.16 125.818 1043.16 126.811V135.138H1043.97V127.17C1043.97 126.187 1044.01 125.374 1044.18 124.703C1044.36 124.07 1044.61 123.578 1045.1 122.936C1045.52 122.369 1046.05 121.981 1046.79 121.698C1047.39 121.49 1048.06 121.348 1048.69 121.348C1049.4 121.348 1049.99 121.452 1050.56 121.669C1051.13 121.887 1051.54 122.198 1051.94 122.586C1052.43 123.077 1052.79 123.682 1053 124.457C1053.25 125.232 1053.35 126.111 1053.35 127.208V135.138H1054.16L1054.3 127.17C1054.3 126.008 1054.16 124.987 1053.88 124.136C1053.63 123.285 1053.27 122.539 1052.72 122.009ZM1068.76 124.618C1068.33 123.635 1067.52 122.643 1066.46 121.934C1065.22 121.083 1063.75 120.667 1062.2 120.667C1059.38 120.667 1057.65 121.934 1056.66 123.03C1055.46 124.372 1054.76 126.206 1054.76 128.077C1054.76 129.949 1055.47 131.783 1056.66 133.125C1057.61 134.183 1059.37 135.488 1062.2 135.488C1063.64 135.488 1064.95 135.138 1066.11 134.467C1067.21 133.758 1068.08 132.841 1068.76 131.612V135.176H1069.57V121.064H1068.76V124.618ZM1068.3 125.431C1068.44 125.818 1068.59 126.206 1068.65 126.594C1068.76 127.019 1068.79 127.473 1068.79 127.86C1068.83 128.323 1068.79 128.739 1068.73 129.127C1068.66 129.59 1068.55 129.977 1068.41 130.327C1067.94 131.631 1067.14 132.756 1066.04 133.503C1064.98 134.278 1063.64 134.665 1062.27 134.665C1060.23 134.665 1058.54 133.928 1057.3 132.586C1056.24 131.386 1055.57 129.732 1055.57 128.002C1055.57 126.13 1056.28 124.476 1057.47 123.238C1058.71 122.038 1060.36 121.338 1062.2 121.338C1063.54 121.338 1064.84 121.726 1065.9 122.397C1067 123.21 1067.84 124.231 1068.3 125.431ZM1072.68 123.172C1073.42 122.501 1074.16 122.076 1074.9 121.764C1075.64 121.48 1076.45 121.301 1077.44 121.301H1077.51C1078.71 121.301 1079.94 121.65 1080.97 122.255C1082.17 123.03 1083.08 124.089 1083.58 125.431L1083.61 125.497H1084.53L1084.46 125.355C1083.9 123.767 1082.84 122.463 1081.43 121.622C1080.27 120.913 1078.86 120.563 1077.48 120.563C1075.44 120.563 1073.57 121.338 1072.19 122.718C1070.81 124.098 1070.03 125.998 1070.03 128.04C1070.03 129.939 1070.77 131.773 1071.97 133.115C1073.35 134.628 1075.29 135.44 1077.61 135.44C1079.12 135.44 1080.61 134.977 1081.81 134.136C1083.01 133.295 1083.93 132.123 1084.46 130.715L1084.52 130.573H1083.6L1083.57 130.639C1083.22 131.66 1082.47 132.652 1081.49 133.352C1080.36 134.231 1078.92 134.656 1077.43 134.656C1076.55 134.656 1075.7 134.476 1074.89 134.164C1074.08 133.815 1073.41 133.352 1072.77 132.784C1072.14 132.151 1071.68 131.442 1071.33 130.601C1070.98 129.788 1070.8 128.871 1070.8 127.955C1070.8 127.038 1071.01 126.083 1071.33 125.242C1071.62 124.448 1072.11 123.739 1072.68 123.172ZM1082.2 123.106C1082.83 123.701 1083.36 124.486 1083.71 125.403C1083.36 124.514 1082.83 123.777 1082.2 123.106Z" fill="white"/>
<path d="M1095.95 120.989H1095.03L1094.99 121.055C1094.99 121.121 1093.61 124.335 1092.24 127.577L1089.53 133.956L1086.96 127.577C1085.31 123.342 1084.35 121.083 1084.35 121.055L1084.31 120.989H1083.4L1089.04 135.062L1086.5 140.771H1087.41L1087.45 140.705C1087.45 140.705 1087.52 140.525 1087.63 140.242C1088.06 139.259 1089.22 136.537 1090.56 133.474C1090.91 132.662 1091.27 131.82 1091.66 130.97L1094.98 123.314C1095.54 122.009 1095.89 121.159 1095.89 121.13L1095.95 120.989ZM1102.3 128.285C1101.53 127.718 1100.57 127.435 1099.62 127.227L1099.51 127.189C1098.42 126.868 1097.72 126.556 1097.25 126.206C1096.72 125.743 1096.44 125.185 1096.4 124.335C1096.4 123.947 1096.44 123.56 1096.58 123.238C1096.69 122.888 1096.9 122.605 1097.15 122.321C1097.43 122 1097.78 121.792 1098.13 121.612C1098.56 121.433 1098.98 121.367 1099.44 121.367H1099.5C1099.93 121.367 1100.32 121.433 1100.63 121.575C1100.98 121.716 1101.3 121.924 1101.54 122.17C1101.79 122.416 1102.01 122.737 1102.14 123.087C1102.28 123.437 1102.35 123.824 1102.35 124.249V124.353H1103.16V124.268C1103.16 123.248 1102.77 122.331 1102.14 121.66C1101.47 120.989 1100.55 120.677 1099.43 120.677C1098.44 120.677 1097.49 120.998 1096.78 121.556C1095.97 122.227 1095.58 123.181 1095.58 124.344C1095.62 125.44 1096.01 126.244 1096.7 126.849C1097.44 127.444 1098.43 127.766 1099.42 128.011C1100.62 128.295 1101.46 128.682 1101.99 129.174C1102.56 129.741 1102.8 130.412 1102.84 131.357V131.461C1102.84 131.924 1102.77 132.378 1102.59 132.728C1102.41 133.115 1102.21 133.465 1101.88 133.749C1101.6 134.07 1101.21 134.316 1100.83 134.486C1100.4 134.665 1099.95 134.731 1099.48 134.731C1098.46 134.731 1097.55 134.41 1096.91 133.815C1096.28 133.181 1095.96 132.331 1095.93 131.31V131.206L1095.12 131.244V131.527C1095.12 132.019 1095.22 132.482 1095.4 132.936C1095.58 133.399 1095.83 133.815 1096.18 134.136C1096.6 134.561 1097.09 134.911 1097.66 135.119C1098.23 135.327 1098.82 135.469 1099.49 135.469C1100.09 135.469 1100.66 135.327 1101.19 135.119C1101.71 134.873 1102.17 134.552 1102.56 134.164C1102.91 133.777 1103.24 133.314 1103.42 132.822C1103.62 132.331 1103.7 131.801 1103.66 131.234C1103.6 129.873 1103.14 128.928 1102.3 128.285ZM1095.49 119.93L1096.44 119.259L1097.39 119.93L1097.01 118.805L1097.99 118.096H1096.83L1096.44 117L1096.09 118.096H1094.93L1095.84 118.805L1095.49 119.93Z" fill="white"/>
<path d="M1017.63 253.984C1017.56 245.878 1024.26 241.984 1024.56 241.798C1020.79 236.289 1014.93 235.532 1012.84 235.447C1007.86 234.937 1003.12 238.383 1000.58 238.383C998.047 238.383 994.144 235.516 990.01 235.601C984.571 235.679 979.556 238.762 976.751 243.63C971.11 253.412 975.314 267.939 980.823 275.89C983.52 279.777 986.719 284.158 990.938 283.996C995.002 283.833 996.532 281.368 1001.43 281.368C1006.33 281.368 1007.71 283.996 1012 283.918C1016.37 283.833 1019.13 279.947 1021.81 276.045C1024.88 271.524 1026.16 267.158 1026.23 266.927C1026.13 266.888 1017.73 263.666 1017.63 253.984Z" fill="white"/>
<path d="M1012.91 220C1013.32 223.755 1011.82 227.518 1009.58 230.231C1007.34 232.935 1003.66 235.044 1000.09 234.766C999.592 231.088 1001.41 227.256 1003.48 224.86C1005.79 222.148 1009.69 220.131 1012.91 220Z" fill="white"/>
<path fill-rule="evenodd" clip-rule="evenodd" d="M783.325 47.6785C782.515 48.5635 781.475 49.013 780.234 49.013C778.992 49.013 777.952 48.5635 777.143 47.6785C776.37 46.8355 775.925 45.4875 775.925 43.9815C775.925 42.5115 776.374 41.182 777.156 40.333C777.974 39.448 779.009 38.9965 780.233 38.993C781.459 38.9965 782.494 39.448 783.312 40.333C784.094 41.182 784.542 42.5115 784.542 43.9815C784.542 45.4875 784.099 46.8355 783.325 47.6785ZM772.457 43.9815C772.457 44.0495 772.46 44.1165 772.461 44.1835C771.219 43.032 769.424 42.6035 768.327 42.38C766.297 41.944 764.746 41.545 764.746 40.073C764.746 39.0345 765.659 38.279 767.413 38.4085C769.016 38.527 769.691 39.525 769.876 40.488C769.902 40.646 769.974 40.761 770.151 40.7625L773.033 40.7875C773.047 40.7875 773.059 40.786 773.071 40.785C772.665 41.7505 772.457 42.8255 772.457 43.9815ZM767.554 49.3825C766.16 49.3825 764.624 48.878 764.27 46.926C764.24 46.7395 764.153 46.6625 764.013 46.6585L761.226 46.6205V41.603C761.592 43.0735 762.805 44.0915 765.429 44.693C767.185 45.121 770.231 45.393 770.231 47.229C770.231 48.509 769.305 49.4125 767.554 49.3825ZM753.673 49.015C751.425 49.015 749.365 47.2125 749.365 43.9835C749.365 41.45 750.909 38.995 753.688 38.995C754.891 38.995 757.943 39.415 757.943 43.9835C757.943 48.564 754.757 49.015 753.673 49.015ZM787.928 42.751C788.568 43.62 789.722 44.2635 791.598 44.6935C793.354 45.1215 796.4 45.3935 796.4 47.2295C796.4 48.5095 795.474 49.413 793.723 49.383C792.33 49.383 790.793 48.8785 790.439 46.9265C790.41 46.74 790.323 46.663 790.182 46.659L787.6 46.624C787.873 45.8055 788.012 44.919 788.012 43.982C788.011 43.5702 787.983 43.1589 787.928 42.751ZM793.533 51.938C796.625 51.938 800.27 50.7655 799.984 46.9625C799.669 43.5865 796.22 42.7315 794.496 42.3805C792.466 41.9445 790.915 41.5455 790.915 40.0735C790.915 39.035 791.828 38.2795 793.582 38.409C795.185 38.5275 795.86 39.5255 796.045 40.4885C796.072 40.6465 796.144 40.7615 796.32 40.763L799.203 40.788C799.422 40.7895 799.49 40.6735 799.463 40.5145C798.898 36.9955 796.012 36 793.356 36C790.703 36 787.507 36.759 787.281 40.1195C787.273 40.2495 787.27 40.3775 787.27 40.503C786.848 39.609 786.239 38.788 785.454 38.061C784.006 36.731 782.201 36.0185 780.232 36.001H780.166C779.226 36.001 778.305 36.1775 777.43 36.5275C776.54 36.8859 775.722 37.4055 775.014 38.061C774.271 38.749 773.684 39.521 773.265 40.3595C772.641 36.968 769.802 36 767.186 36C764.751 36 761.857 36.6415 761.226 39.35V36.6615C761.226 36.5926 761.199 36.5266 761.151 36.478C761.103 36.4293 761.038 36.402 760.971 36.402H758.256C758.188 36.4021 758.124 36.4296 758.076 36.4783C758.028 36.5271 758.001 36.5931 758.001 36.662V37.387C758.001 37.509 757.921 37.5515 757.824 37.4805C756.858 36.767 755.429 36.0015 753.71 36.0015C752.744 36.0015 751.822 36.1745 750.968 36.5155C750.114 36.8575 749.302 37.378 748.557 38.063C747.708 38.849 747.062 39.745 746.639 40.726C746.215 41.707 746 42.803 746 43.983C746 45.0845 746.19 46.1175 746.566 47.051C746.941 47.9845 747.511 48.848 748.263 49.618C749.014 50.388 749.855 50.973 750.759 51.358C751.664 51.7415 752.661 51.936 753.724 51.936C755.552 51.936 756.923 51.1435 757.821 50.423C757.92 50.346 758.001 50.3875 758.001 50.5135V51.275C758.001 51.418 758.116 51.535 758.257 51.535H760.971C761.039 51.5347 761.104 51.5072 761.151 51.4585C761.199 51.4098 761.226 51.3438 761.226 51.275V48.71C762.506 51.775 765.767 51.9375 767.363 51.9375C770.032 51.9375 773.109 51.0625 773.72 48.3785C774.014 48.8227 774.349 49.2371 774.72 49.616C776.175 51.1075 778.082 51.9095 780.237 51.9335H780.325C781.348 51.9335 782.335 51.7335 783.259 51.338C784.192 50.9363 785.038 50.3511 785.748 49.616C786.279 49.0764 786.733 48.463 787.096 47.794C788.064 51.7455 791.791 51.938 793.533 51.938Z" fill="white"/>
<path d="M819.471 278.184C815.941 278.184 813 279.679 813 284.189C813 287.762 814.978 290.011 819.562 290.011C824.959 290.011 825.304 286.463 825.304 286.463H822.69C822.69 286.463 822.129 288.374 819.403 288.374C817.182 288.374 815.585 286.876 815.585 284.778H825.578V283.461C825.578 281.385 824.258 278.184 819.471 278.184ZM819.38 279.867C821.494 279.867 822.935 281.16 822.935 283.097H815.643C815.643 281.04 817.524 279.867 819.38 279.867Z" fill="white"/>
<path d="M825.572 273.804V287.742C825.572 288.533 825.516 289.644 825.516 289.644H828.007C828.007 289.644 828.097 288.846 828.097 288.117C828.097 288.117 829.328 290.043 832.675 290.043C836.2 290.043 838.594 287.596 838.594 284.091C838.594 280.83 836.395 278.208 832.681 278.208C829.203 278.208 828.122 280.085 828.122 280.085V273.804H825.572ZM832.038 279.932C834.432 279.932 835.954 281.708 835.954 284.091C835.954 286.647 834.196 288.318 832.055 288.318C829.5 288.318 828.122 286.324 828.122 284.114C828.122 282.054 829.359 279.932 832.038 279.932Z" fill="white"/>
<path d="M844.775 278.184C839.472 278.184 839.132 281.086 839.132 281.55H841.771C841.771 281.55 841.91 279.856 844.593 279.856C846.336 279.856 847.688 280.653 847.688 282.186V282.732H844.593C840.484 282.732 838.312 283.933 838.312 286.37C838.312 288.769 840.319 290.074 843.031 290.074C846.728 290.074 847.918 288.033 847.918 288.033C847.918 288.845 847.981 289.645 847.981 289.645H850.327C850.327 289.645 850.236 288.653 850.236 288.019V282.536C850.236 278.941 847.334 278.184 844.775 278.184ZM847.688 284.369V285.097C847.688 286.046 847.101 288.405 843.651 288.405C841.762 288.405 840.952 287.463 840.952 286.37C840.952 284.382 843.68 284.369 847.688 284.369Z" fill="white"/>
<path d="M848.826 278.622H851.795L856.057 287.164L860.309 278.622H862.999L855.254 293.828H852.432L854.667 289.589L848.826 278.622Z" fill="white"/>
<path d="M561.931 69.2495C559.628 69.6728 555.838 73.0705 555.838 73.0705C555.838 73.0705 560.713 61.2902 572.412 59.9911C572.412 59.9911 569.568 54.0598 558.438 62.6716C547.307 71.2835 548.606 85.5856 554.213 87.0479C559.819 88.5101 565.994 82.5788 567.945 76.8106C569.895 71.0424 566.742 68.3648 561.931 69.2495ZM561.803 80.2921C559.478 83.8191 556.41 85.9045 554.95 84.9434C553.491 83.9823 553.817 79.55 556.142 76.0185C558.467 72.4871 561.638 70.5457 563.099 71.5068C564.56 72.468 564.126 76.7607 561.803 80.2921Z" fill="white"/>
<path d="M608.314 76.768C607.704 78.3258 608.382 71.5539 606.045 71.5539C603.708 71.5539 602.35 71.983 598.969 76.3962C597.298 78.5757 601.614 69.3701 594.198 69.1643C592.204 69.1085 589.879 69.883 589.657 69.9947C589.435 70.1064 583.801 66.0576 576.646 74.7576C576.646 74.7576 577.48 68.3017 572.412 68.8792C572.412 68.8792 573.964 72.3607 569.966 82.2908C565.969 92.2209 563.466 97.676 564.266 99.2999C565.065 100.924 566.742 100.623 567.387 100.29C568.032 99.9583 574.381 79.6073 578.86 75.0604C582.6 71.2615 584.825 70.6266 585.975 71.6274C585.975 71.6274 574.324 78.8284 577.026 85.7914C577.951 88.1736 582.005 87.9532 585.127 85.0742C588.248 82.1953 592.45 76.4168 590.589 71.26C590.589 71.26 596.291 69.8257 594.73 75.4072C593.17 80.9887 590.649 84.6495 592.27 86.5761C593.891 88.5028 595.692 86.4292 596.651 84.4041C597.611 82.379 602.53 72.1726 604.033 73.554C605.536 74.9355 601.032 83.2166 603.613 84.5966C606.193 85.9766 611.941 73.8773 613.061 72.3005C613.969 71.0234 615.784 70.2783 614.956 73.7936C614.721 74.7944 610.59 85.4593 612.017 87.6607C613.444 89.8622 616.758 89.6579 616.758 89.6579C616.758 89.6579 614.63 85.6356 618.216 75.8437C621.756 66.2722 612.388 66.3574 608.314 76.768ZM579.207 84.889C576.071 82.3907 583.651 74.9193 586.01 73.529C586.317 73.3468 586.614 73.5437 586.643 73.8994C586.875 76.793 581.275 86.5321 579.207 84.889Z" fill="white"/>
<path d="M1400 207.476C1400.99 207.476 1401.82 206.952 1401.93 206.275L1402.92 195.025C1402.92 193.913 1401.62 193 1400 193C1398.38 193 1397.08 193.913 1397.08 195.025L1398.07 206.275C1398.18 206.951 1399 207.476 1400 207.476H1400ZM1393.96 210.989C1394.47 210.118 1394.43 209.138 1393.9 208.703L1384.73 202.217C1383.77 201.66 1382.34 202.33 1381.53 203.749C1380.72 205.166 1380.86 206.749 1381.81 207.306L1391.97 212.073C1392.6 212.31 1393.47 211.854 1393.97 210.983L1393.96 210.989ZM1406.03 210.983C1406.53 211.854 1407.39 212.311 1408.03 212.074L1418.19 207.306C1419.14 206.75 1419.28 205.167 1418.47 203.75C1417.66 202.332 1416.22 201.661 1415.27 202.217L1406.1 208.704C1405.58 209.138 1405.54 210.119 1406.04 210.99L1406.03 210.983ZM1400 221.529C1400.99 221.529 1401.82 222.048 1401.93 222.725L1402.92 233.974C1402.92 235.089 1401.62 236 1400 236C1398.38 236 1397.08 235.089 1397.08 233.974L1398.07 222.725C1398.18 222.048 1399 221.529 1400 221.529H1400ZM1406.03 218.014C1406.53 217.141 1407.39 216.688 1408.03 216.928L1418.19 221.692C1419.14 222.249 1419.28 223.834 1418.47 225.252C1417.66 226.665 1416.22 227.338 1415.27 226.782L1406.1 220.302C1405.58 219.864 1405.54 218.883 1406.04 218.012H1406.03L1406.03 218.014ZM1393.96 218.013C1394.47 218.883 1394.43 219.864 1393.9 220.302L1384.73 226.783C1383.77 227.339 1382.34 226.665 1381.53 225.252C1380.72 223.834 1380.86 222.25 1381.81 221.692L1391.97 216.928C1392.6 216.688 1393.47 217.141 1393.97 218.015H1393.96" fill="white"/>
<path d="M1417.48 250.353C1417.48 250.53 1417.46 250.712 1417.41 250.872C1417.22 251.538 1416.54 252.1 1415.7 252.1C1414.99 252.1 1414.43 251.692 1414.43 250.83C1414.43 249.511 1415.86 249.146 1417.48 249.155L1417.48 250.353ZM1420.02 248.054C1420.02 245.878 1419.11 243.963 1416.03 243.963C1414.45 243.963 1413.19 244.416 1412.51 244.82L1413.01 246.569C1413.64 246.166 1414.63 245.832 1415.58 245.832C1417.14 245.828 1417.39 246.735 1417.39 247.315V247.452C1413.99 247.447 1411.84 248.65 1411.84 251.1C1411.84 252.597 1412.94 253.999 1414.84 253.999C1416.01 253.999 1416.99 253.522 1417.58 252.758H1417.63C1417.63 252.758 1418.02 254.417 1420.17 253.782C1420.05 253.092 1420.02 252.355 1420.02 251.469L1420.02 248.054ZM1367 241C1367 241 1369.22 250.301 1369.58 251.81C1369.99 253.572 1370.74 254.22 1372.89 253.782L1374.28 248.017C1374.63 246.584 1374.87 245.562 1375.09 244.106H1375.13C1375.29 245.578 1375.52 246.588 1375.81 248.021C1375.81 248.021 1376.37 250.639 1376.66 252.014C1376.95 253.388 1377.76 254.254 1379.87 253.782L1383.18 241H1380.51L1379.38 246.527C1379.07 248.135 1378.8 249.393 1378.58 250.864H1378.55C1378.35 249.406 1378.11 248.199 1377.8 246.632L1376.62 241H1373.84L1372.58 246.49C1372.23 248.159 1371.89 249.506 1371.68 250.927H1371.64C1371.42 249.589 1371.14 247.895 1370.82 246.28C1370.82 246.28 1370.08 242.354 1369.81 241L1367 241ZM1388.23 250.353C1388.23 250.53 1388.21 250.712 1388.16 250.872C1387.97 251.538 1387.29 252.1 1386.45 252.1C1385.74 252.1 1385.18 251.692 1385.18 250.83C1385.18 249.511 1386.61 249.146 1388.23 249.155L1388.23 250.353ZM1390.77 248.054C1390.77 245.878 1389.86 243.963 1386.78 243.963C1385.2 243.963 1383.94 244.416 1383.26 244.82L1383.76 246.569C1384.39 246.166 1385.38 245.832 1386.33 245.832C1387.89 245.828 1388.14 246.735 1388.14 247.315V247.452C1384.74 247.447 1382.59 248.65 1382.59 251.1C1382.59 252.597 1383.68 253.999 1385.59 253.999C1386.76 253.999 1387.74 253.522 1388.33 252.758H1388.38C1388.38 252.758 1388.77 254.417 1390.91 253.782C1390.8 253.092 1390.77 252.355 1390.77 251.469V248.054ZM1395.01 241H1392.46V253.783H1395.01V241ZM1428.28 241V250.43C1428.28 251.73 1428.52 252.641 1429.03 253.198C1429.48 253.685 1430.22 254 1431.1 254C1431.85 254 1432.59 253.853 1432.94 253.721L1432.91 251.693C1432.65 251.758 1432.35 251.81 1431.94 251.81C1431.07 251.81 1430.79 251.244 1430.79 250.077V246.469H1433V244.023H1430.79V241H1428.28ZM1421.71 244.18V253.783H1424.34V248.866C1424.34 248.6 1424.35 248.369 1424.39 248.157C1424.59 247.127 1425.36 246.469 1426.47 246.469C1426.77 246.469 1426.99 246.502 1427.22 246.537V244.023C1427.03 243.983 1426.89 243.964 1426.65 243.964C1425.67 243.964 1424.55 244.609 1424.08 245.992H1424.01V244.18H1421.71ZM1396.79 244.18V253.783H1399.34V248.152C1399.34 247.888 1399.37 247.608 1399.46 247.366C1399.67 246.799 1400.19 246.135 1401.02 246.135C1402.05 246.135 1402.53 247.025 1402.53 248.31V253.782H1405.08V248.083C1405.08 247.83 1405.12 247.527 1405.19 247.304C1405.4 246.659 1405.96 246.134 1406.72 246.134C1407.77 246.134 1408.27 247.009 1408.27 248.521V253.782H1410.83V248.126C1410.83 245.143 1409.34 243.963 1407.67 243.963C1406.93 243.963 1406.34 244.152 1405.81 244.484C1405.37 244.763 1404.97 245.159 1404.62 245.68H1404.58C1404.18 244.645 1403.23 243.963 1401.99 243.963C1400.4 243.963 1399.68 244.787 1399.25 245.485H1399.21V244.18L1396.79 244.18Z" fill="white"/>
<path fill-rule="evenodd" clip-rule="evenodd" d="M1138.1 228.595L1137.61 229.439L1128.55 228.935L1138.1 228.595ZM1136.95 230.601L1136.48 231.446L1127.39 230.941L1136.95 230.601ZM1135.81 232.623L1135.34 233.463L1126.26 232.958L1135.81 232.623ZM1134.69 234.635L1134.2 235.479L1125.13 234.975L1134.69 234.635ZM1146.39 218.474L1146.42 219.586L1134.21 218.907L1146.39 218.474ZM1146.31 216.483L1146.35 217.497L1135.37 216.867L1146.31 216.483ZM1146.23 214.564L1146.28 215.428L1136.48 214.885L1146.23 214.564ZM1146.17 212.593L1146.2 213.385L1137.62 212.879L1146.17 212.593ZM1146.11 211L1146.12 211.395L1138.68 211H1146.11ZM1133.54 236.646L1133.35 236.991H1124L1133.54 236.646ZM1165.88 211.064C1171.23 211.076 1172.37 214.264 1171.69 217.384C1170.93 220.819 1167.1 223.303 1164.9 223.807C1168.84 225.092 1168.84 227.661 1168.01 230.505C1167.19 233.35 1162.78 236.928 1157.88 236.928H1139.37L1139.34 236.377L1145.02 236.171C1145.13 236.171 1145.13 236.033 1145.05 236.022L1139.32 235.703L1139.27 234.42L1146.14 234.175C1146.28 234.175 1146.26 234.026 1146.18 234.015L1139.24 233.629L1139.2 232.463L1147.28 232.179C1147.42 232.179 1147.38 232.019 1147.3 232.007L1139.16 231.555L1139.11 230.492L1148.44 230.16C1148.56 230.16 1148.53 230.023 1148.46 230.011L1139.08 229.49L1139.04 228.54L1149.57 228.164C1149.71 228.164 1149.65 228.015 1149.59 228.004L1129.78 226.903L1150.7 226.159C1150.87 226.147 1150.79 225.998 1150.71 225.987L1130.89 224.886L1151.84 224.129C1151.98 224.129 1151.96 223.98 1151.87 223.98L1132.05 222.879L1152.97 222.133C1153.1 222.133 1153.12 221.973 1152.99 221.973L1133.17 220.871L1154.06 220.172C1154.19 220.172 1154.18 220.045 1154.08 220.034L1147.27 219.655L1147.97 218.445L1155.22 218.187C1155.35 218.187 1155.36 218.049 1155.22 218.038L1148.41 217.648L1149.1 216.423L1156.35 216.168C1156.5 216.168 1156.5 216.042 1156.35 216.03L1149.53 215.652L1150.2 214.48L1157.46 214.241C1157.54 214.241 1157.57 214.115 1157.47 214.104L1150.64 213.7L1151.34 212.476L1158.59 212.234C1158.7 212.234 1158.7 212.12 1158.62 212.12L1151.74 211.755L1152.13 211.064H1165.88ZM1156.57 230.984C1160.56 230.984 1162.67 225.295 1158.31 225.295H1154.09L1150.88 230.984H1156.57ZM1163.93 218.78C1164.12 218.092 1164.02 216.532 1161.27 216.44H1159.12L1156.41 221.211H1160.63C1162.37 221.211 1163.75 219.468 1163.93 218.78Z" fill="white"/>
</svg>
