<svg width="320" height="406" viewBox="0 0 320 406" fill="none" xmlns="http://www.w3.org/2000/svg">
<g opacity="0.1" filter="url(#filter0_d_2_1122)">
<path fill-rule="evenodd" clip-rule="evenodd" d="M250 328.1C269.33 328.1 285 312.43 285 293.1C285 273.77 269.33 258.1 250 258.1C230.67 258.1 215 273.77 215 293.1C215 312.43 230.67 328.1 250 328.1Z" fill="white"/>
</g>
<path d="M268.684 310.16C247.516 320.054 234.527 311.718 226.149 306.623C225.628 306.302 224.736 306.623 225.505 307.563C228.305 310.952 237.452 319.089 249.375 319.089C253.041 319.191 256.692 318.569 260.117 317.257C263.541 315.945 266.672 313.97 269.328 311.446C270.196 310.333 269.576 309.715 268.684 310.086V310.16ZM274.608 306.895C274.038 306.153 271.162 306.005 269.353 306.227C267.543 306.45 264.817 307.563 265.065 308.231C265.189 308.478 265.437 308.231 266.676 308.231C267.915 308.231 271.435 307.662 272.154 308.602C272.873 309.542 271.038 314.118 270.691 314.86C270.344 315.602 270.691 315.8 271.435 315.305C272.526 314.325 273.375 313.106 273.914 311.743C274.683 310.215 274.943 308.482 274.657 306.796L274.608 306.895Z" fill="white"/>
<path fill-rule="evenodd" clip-rule="evenodd" d="M254.5 289.656C254.76 292.109 254.322 294.587 253.236 296.804C252.804 297.683 252.144 298.431 251.324 298.971C250.505 299.51 249.556 299.821 248.576 299.871C246.097 299.871 244.461 297.892 244.461 294.924C244.461 289.186 249.617 288.122 254.5 288.122V289.656ZM261.316 306.079C261.099 306.261 260.832 306.375 260.549 306.405C260.267 306.436 259.982 306.383 259.73 306.252C258.168 305.001 256.849 303.475 255.838 301.751C254.512 303.4 252.81 304.709 250.874 305.569C248.938 306.43 246.825 306.816 244.709 306.697C243.323 306.78 241.935 306.56 240.642 306.055C239.349 305.55 238.182 304.771 237.22 303.771C236.259 302.772 235.526 301.576 235.073 300.266C234.62 298.956 234.457 297.564 234.596 296.185C234.505 293.824 235.15 291.494 236.442 289.514C237.734 287.534 239.609 286.002 241.809 285.129C245.901 283.712 250.174 282.879 254.5 282.656V281.914C254.719 280.22 254.435 278.5 253.682 276.967C253.242 276.415 252.679 275.973 252.038 275.677C251.397 275.381 250.695 275.238 249.989 275.26C248.728 275.136 247.466 275.482 246.445 276.231C245.425 276.98 244.718 278.079 244.461 279.317C244.461 279.91 243.891 280.529 243.296 280.553L236.727 279.836C236.567 279.812 236.413 279.756 236.274 279.672C236.136 279.588 236.016 279.477 235.921 279.345C235.826 279.214 235.759 279.065 235.723 278.907C235.687 278.749 235.683 278.586 235.711 278.426C237.223 270.585 244.411 268.112 250.831 268.112C254.523 267.966 258.143 269.162 261.019 271.476C264.315 274.543 263.993 278.624 263.993 283.076V293.588C264.004 295.903 264.889 298.129 266.472 299.821C266.704 300.065 266.833 300.388 266.833 300.724C266.833 301.06 266.704 301.383 266.472 301.627C265.084 302.765 262.63 304.917 261.291 306.104" fill="white"/>
<g opacity="0.1" filter="url(#filter1_d_2_1122)">
<path fill-rule="evenodd" clip-rule="evenodd" d="M30 373.1C63.1371 373.1 90 346.237 90 313.1C90 279.963 63.1371 253.1 30 253.1C-3.13708 253.1 -30 279.963 -30 313.1C-30 346.237 -3.13708 373.1 30 373.1Z" fill="white"/>
</g>
<path d="M-13 313.6C-13 290.128 6.0279 271.1 29.5 271.1C52.9721 271.1 72 290.128 72 313.6C72 337.072 52.9721 356.1 29.5 356.1C6.0279 356.1 -13 337.072 -13 313.6Z" fill="white" fill-opacity="0.3"/>
<path d="M5.85643 338.386L3.65051 340.591L2.19958 339.137L4.40065 336.932L-1.29864 331.235C-2.22338 330.308 -2.35009 330.134 -3.50407 330.732C-3.92678 330.959 -4.38286 330.956 -4.7306 330.604C-5.45801 329.877 -4.68127 329.004 -4.58019 328.901L2.50572 321.816C2.60584 321.716 3.47979 320.94 4.20768 321.665C4.55977 322.018 4.56268 322.469 4.33633 322.894C3.7337 324.047 3.91072 324.172 4.83835 325.099L17.9873 338.25C18.9139 339.18 19.0402 339.357 20.1941 338.752C20.6207 338.529 21.0695 338.531 21.4226 338.881C22.1481 339.609 21.3747 340.486 21.2756 340.587L14.1877 347.67C14.0862 347.77 13.2093 348.546 12.4824 347.821C12.1332 347.468 12.1322 347.017 12.3547 346.591C12.9588 345.439 12.7818 345.313 11.8541 344.384L5.85643 338.386ZM5.76067 356.1H2.86991L2.89264 356.055C3.4914 354.907 3.31728 354.778 2.39013 353.851L-10.7612 340.702C-11.6917 339.771 -11.8151 339.596 -12.9676 340.196C-12.9782 340.202 -12.9894 340.206 -13 340.212V337.321L-6.95876 331.28C-6.85865 331.183 -5.98277 330.404 -5.25729 331.129C-4.90617 331.482 -4.90278 331.932 -5.12816 332.358C-5.73127 333.514 -5.55522 333.638 -4.6242 334.568L8.5252 347.715C9.4538 348.647 9.57761 348.822 10.7316 348.22C11.1572 347.994 11.6089 347.994 11.9601 348.347C12.686 349.076 11.9102 349.95 11.8111 350.05L5.76067 356.1ZM41.8644 282.457L48.4715 275.848L67.2453 294.613L60.6353 301.226C60.5347 301.327 59.6559 302.103 58.9304 301.376C58.5783 301.024 58.5783 300.571 58.8037 300.147C59.4034 298.994 59.2308 298.868 58.3007 297.939L45.1484 284.789C44.2198 283.864 44.096 283.686 42.942 284.289C42.5154 284.514 42.0642 284.514 41.7145 284.161C40.9866 283.436 41.7643 282.556 41.8644 282.457ZM53.2205 271.1H57.152L60.2783 274.228C60.405 274.353 60.8582 274.858 60.1057 275.605C59.6786 276.033 59.3028 275.908 58.8022 275.658C56.1199 274.271 53.6127 274.324 51.0561 276.175L49.5994 274.721L53.2205 271.1ZM72 285.6V289.861L68.3702 293.488L66.9178 292.034C68.6967 289.753 68.8645 286.822 67.5345 284.14C67.3333 283.587 67.0808 283.034 67.5316 282.586C68.334 281.783 69.0101 282.612 69.1102 282.714L72 285.6ZM57.9839 283.101C58.7597 281.774 58.2557 280.32 57.5269 279.139C57.2314 278.591 56.977 278.036 57.5012 277.51C58.277 276.737 59.06 277.763 59.2603 277.964L64.6776 283.383C64.8788 283.583 65.9065 284.364 65.1322 285.139C64.6046 285.667 64.0542 285.411 63.4989 285.111C62.3198 284.385 60.8669 283.884 59.5393 284.655L57.9839 283.101ZM34.6886 353.001L31.5884 356.1H29.9401C29.9836 356.002 30.0364 355.901 30.0881 355.793C30.2748 355.443 29.8642 355.087 29.6538 354.876L22.2588 347.482C22.046 347.272 21.6949 346.863 21.3423 347.048C20.9617 347.231 20.6512 347.457 20.2967 347.105C19.931 346.738 20.2411 346.341 20.5235 346.062L24.1354 342.45L34.6886 353.001ZM58.3312 308.251L61.7883 304.794L70.7614 313.767C71.2818 314.289 71.3553 314.388 72 314.051V315.691L68.6174 319.071C68.5618 319.127 68.0675 319.566 67.6588 319.155C67.4615 318.96 67.4605 318.705 67.5882 318.466C67.9277 317.817 67.8276 317.748 67.3077 317.226L58.3312 308.251ZM67.7434 305.414C67.799 305.472 68.11 305.866 67.6854 306.288C67.2912 306.682 66.8535 306.388 66.5029 306.117C65.6265 305.499 64.4977 304.766 63.2436 304.979L62.4248 304.161L64.4556 302.127L67.7434 305.414ZM55.6677 310.917L57.6986 308.886L58.5174 309.703C58.3041 310.96 59.0378 312.087 59.6593 312.962C59.9272 313.315 60.2213 313.752 59.8276 314.146C59.4053 314.57 59.0112 314.261 58.9527 314.203L55.6677 310.917ZM12.599 313.88C11.8474 315.482 12.5013 316.334 13.1295 316.961L26.127 329.96C26.7543 330.588 27.6085 331.24 29.2103 330.49L30.6656 331.947C24.8802 336.777 18.112 334.967 13.1169 329.974C8.12473 324.978 6.31203 318.208 11.1437 312.424L12.599 313.88ZM30.3391 329.366C31.0893 327.764 30.4363 326.907 29.8052 326.281L16.8106 313.281C16.1818 312.655 15.3277 312.003 13.7273 312.754L12.271 311.3C18.0545 306.467 24.826 308.278 29.8187 313.271C34.8119 318.265 36.6246 325.033 31.792 330.82L30.3391 329.366ZM58.0081 302.297C57.655 301.95 57.2052 301.945 56.7782 302.172C55.6247 302.772 55.5018 302.598 54.5718 301.668L41.4219 288.52C40.4914 287.591 40.3148 287.467 40.9194 286.311C41.1404 285.887 41.1404 285.434 40.7907 285.083C40.0633 284.356 39.1879 285.133 39.0883 285.233L32.4768 291.842L37.8763 301.85L37.8245 301.898L27.446 296.877L21.0884 303.233C20.789 303.533 20.0341 304.284 20.8108 305.063C21.4125 305.666 22.1408 305.04 22.4649 304.762C22.9176 304.364 23.3209 304.564 23.9192 304.716C24.4459 304.842 24.9474 305.093 25.4499 305.347L46.2119 315.644L46.9374 314.919L36.7818 296.149L48.4357 307.802C49.3643 308.732 49.5399 308.859 48.9383 310.009C48.7105 310.438 48.7143 310.887 49.0693 311.238C49.7933 311.964 50.6707 311.191 50.7718 311.089L57.862 304.002C57.9622 303.9 58.7336 303.024 58.0081 302.297ZM38.3933 315.535L34.0777 311.22L28.5366 308.481L28.4863 308.531L36.9404 316.988C39.6764 320.524 37.0976 321.149 38.1781 322.23C38.9548 323.006 39.9303 321.928 40.2046 321.652L43.0595 318.8C43.3333 318.524 44.4084 317.551 43.6302 316.774C42.5512 315.693 41.9297 318.272 38.3933 315.535ZM24.769 341.813C27.1384 339.385 30.8058 339.047 34.617 342.52C38.0867 345.678 37.6649 350.024 35.3226 352.366L34.5053 351.548C35.2535 350.572 34.4912 349.726 33.9525 349.192L27.9441 343.18C27.4073 342.645 26.5609 341.883 25.5887 342.631L24.769 341.813ZM30.0306 336.552L33.7537 332.828L44.3064 343.382L40.5833 347.105C40.5267 347.16 40.0319 347.599 39.6232 347.19C39.4269 346.993 39.4259 346.738 39.5526 346.499C39.8926 345.851 39.7935 345.78 39.2731 345.257L31.8805 337.864C31.3582 337.344 31.2861 337.245 30.6395 337.581C30.3986 337.711 30.1452 337.71 29.9459 337.512C29.5358 337.105 29.974 336.608 30.0306 336.552ZM34.3887 332.192L37.5343 329.048L40.3985 331.909C40.4691 331.98 40.725 332.262 40.3008 332.686C40.0599 332.926 39.8505 332.857 39.5671 332.715C38.0557 331.939 36.6473 331.968 35.2056 333.009L34.3887 332.192ZM44.1231 341.928C45.1242 340.645 45.2243 338.993 44.4756 337.482C44.3649 337.172 44.2208 336.863 44.4742 336.609C44.9279 336.157 45.309 336.622 45.3646 336.679L48.1881 339.502L44.9433 342.747L44.1231 341.928ZM39.1009 336.905C39.5381 336.158 39.2566 335.342 38.8484 334.678C38.6772 334.366 38.536 334.054 38.8339 333.758C39.2716 333.323 39.7103 333.902 39.823 334.014L42.8714 337.063C42.9821 337.174 43.562 337.612 43.1229 338.049C42.8293 338.346 42.5178 338.205 42.2064 338.034C41.5443 337.627 40.7264 337.344 39.9787 337.782L39.1009 336.905ZM42.9797 323.603C44.3204 322.262 45.2509 321.611 46.2966 321.332C47.9618 320.907 49.3024 321.43 50.4888 322.612C51.6713 323.796 52.1937 325.139 51.7705 326.804C51.4871 327.849 50.839 328.782 49.4978 330.121L48.68 329.304C49.3571 328.313 48.8232 327.694 48.132 327L46.0016 324.87C45.3665 324.237 44.6599 323.785 43.7981 324.42L42.9797 323.603ZM40.4677 329.277C39.9463 328.754 39.8752 328.656 39.2257 328.993C38.9867 329.122 38.7328 329.119 38.535 328.921C38.1268 328.513 38.5645 328.019 38.6201 327.962L42.3447 324.24L51.3197 333.214C51.8392 333.734 51.9112 333.835 52.5598 333.495C52.8007 333.369 53.0536 333.367 53.2524 333.565C53.6635 333.975 53.2248 334.469 53.1682 334.524L49.1752 338.518C49.1196 338.576 48.7361 338.901 48.326 338.493C48.1296 338.295 48.0943 338.074 48.221 337.834C48.56 337.186 48.3825 337.192 47.8612 336.669L40.4677 329.277Z" fill="white"/>
<path d="M51.9225 315.876C51.4983 316.778 51.864 317.256 52.2161 317.608L59.5254 324.916C59.878 325.268 60.3588 325.636 61.2603 325.211L62.0786 326.029C58.8203 328.754 55.0106 327.739 52.2035 324.93C49.394 322.123 48.3793 318.314 51.1018 315.054L51.9225 315.876ZM61.8958 324.578C62.319 323.676 61.9524 323.197 61.5993 322.842L54.2919 315.536C53.9388 315.182 53.4595 314.816 52.5566 315.238L51.7397 314.421C54.9995 311.697 58.8082 312.714 61.6138 315.522C64.4228 318.329 65.4404 322.136 62.716 325.398L61.8958 324.578ZM-2.81426 303.285L0.434401 300.037L8.86824 308.47C9.35914 308.961 9.4254 309.054 10.0353 308.736C10.2607 308.616 10.4991 308.616 10.6848 308.802C11.0693 309.186 10.6582 309.651 10.6055 309.703L6.85288 313.457C6.79968 313.509 6.33586 313.921 5.95136 313.536C5.76516 313.35 5.76516 313.112 5.8851 312.886C6.20286 312.276 6.11048 312.21 5.61958 311.719L-2.81426 303.285ZM6.03068 300.62C6.08388 300.673 6.37504 301.044 5.97748 301.442C5.60555 301.813 5.19446 301.534 4.86364 301.283C4.04144 300.699 2.98032 300.009 1.80022 300.208L1.03122 299.439L2.94114 297.53L6.03068 300.62ZM-5.321 305.791L-3.41108 303.882L-2.64256 304.651C-2.84134 305.831 -2.15214 306.892 -1.56838 307.715C-1.3164 308.047 -1.03782 308.457 -1.40878 308.828C-1.8073 309.227 -2.17826 308.935 -2.23146 308.881L-5.321 305.791ZM15.7636 301.575C16.255 302.066 16.3208 302.158 16.9311 301.84C17.156 301.721 17.3949 301.721 17.5811 301.906C17.9647 302.291 17.5536 302.755 17.5009 302.808L13.7487 306.56C13.6955 306.614 13.2312 307.025 12.8467 306.641C12.662 306.455 12.661 306.216 12.7809 305.99C13.0992 305.38 13.0063 305.315 12.5159 304.823L5.56638 297.875C5.07596 297.384 5.00922 297.291 4.39934 297.61C4.17348 297.729 3.93504 297.729 3.7498 297.543C3.3653 297.158 3.7764 296.694 3.82912 296.641L7.58222 292.888C7.63542 292.837 8.09924 292.424 8.48374 292.809C8.66994 292.995 8.66994 293.234 8.54951 293.459C8.23176 294.069 8.32462 294.135 8.81552 294.626L15.7636 301.575ZM14.3581 296.642L13.1911 297.809L12.4221 297.039L13.5891 295.873L10.5789 292.862C10.088 292.372 10.0217 292.278 9.41186 292.597C9.18648 292.717 8.94804 292.717 8.76184 292.53C8.37734 292.146 8.78892 291.682 8.84164 291.628L12.5943 287.876C12.6475 287.824 13.1118 287.412 13.4963 287.797C13.6815 287.983 13.6815 288.221 13.5625 288.446C13.2443 289.056 13.3371 289.123 13.8276 289.614L20.7761 296.562C21.267 297.053 21.3328 297.145 21.9432 296.828C22.1685 296.708 22.407 296.708 22.5927 296.894C22.9777 297.278 22.5661 297.743 22.5139 297.795L18.7608 301.548C18.708 301.602 18.2442 302.012 17.8588 301.628C17.6735 301.443 17.6735 301.204 17.7925 300.978C18.1107 300.368 18.0179 300.302 17.5275 299.811L14.3581 296.642ZM13.844 286.627L17.3451 283.126L27.2642 293.045L23.7636 296.546C23.7109 296.598 23.2471 297.009 22.8616 296.625C22.6764 296.44 22.6764 296.201 22.7953 295.976C23.1136 295.365 23.0212 295.299 22.5303 294.808L15.5813 287.859C15.0908 287.369 15.0241 287.276 14.4142 287.594C14.1888 287.714 13.9504 287.714 13.7647 287.528C13.3802 287.144 13.7913 286.679 13.844 286.627ZM17.9429 282.529L20.8994 279.573L23.5909 282.264C23.6567 282.331 23.8952 282.595 23.4986 282.993C23.2727 283.219 23.0744 283.152 22.8094 283.019C21.3894 282.291 20.0632 282.317 18.7114 283.298L17.9429 282.529ZM27.0921 291.679C28.0328 290.472 28.1266 288.92 27.4238 287.501C27.317 287.209 27.1844 286.918 27.4238 286.679C27.8475 286.255 28.2059 286.692 28.2591 286.746L30.9109 289.397L27.8611 292.448L27.0921 291.679ZM22.3712 286.957C22.7823 286.255 22.5168 285.486 22.1323 284.863C21.9736 284.571 21.8406 284.279 22.1192 284.001C22.5308 283.59 22.9419 284.133 23.0478 284.24L25.912 287.104C26.0184 287.21 26.5615 287.621 26.1514 288.032C25.8723 288.31 25.5802 288.178 25.2885 288.018C24.6651 287.635 23.8961 287.369 23.1934 287.781L22.3712 286.957Z" fill="white"/>
<g opacity="0.1" filter="url(#filter2_d_2_1122)">
<path fill-rule="evenodd" clip-rule="evenodd" d="M150 258.1C183.137 258.1 210 231.237 210 198.1C210 164.963 183.137 138.1 150 138.1C116.863 138.1 90 164.963 90 198.1C90 231.237 116.863 258.1 150 258.1Z" fill="white"/>
</g>
<path d="M129.29 203.531H135.502L144.654 179.1H138.886L134.775 190.057L135.484 179.1H129.346L120.194 203.531H125.962L129.996 192.722L129.29 203.531Z" fill="white"/>
<path d="M145.403 179.1L136.251 203.531H142.019L151.171 179.1H145.403Z" fill="white"/>
<path fill-rule="evenodd" clip-rule="evenodd" d="M119.529 195.11C111.469 204.587 103.865 217.196 110.581 223.003C117.032 228.58 125.227 225.297 130.77 223.077C136.316 220.856 197.621 194.203 197.621 194.203C198.212 193.907 198.102 193.537 197.362 193.722C197.236 193.753 185.358 196.974 171.657 200.691L172.338 198.793H165.609L167.819 192.871H173.365L175.072 188.318H169.526L171.427 183.172H177.268L178.818 179.1H161.218L155.175 186.43L157.965 179.1H152.123L143.044 203.531H148.813L152.689 193.315L152.954 203.531L161.252 203.513C145.528 207.779 130.622 211.823 130.622 211.823C122.191 214.193 112.578 209.028 119.529 195.11ZM158.676 201.902L158.307 189.169L167.028 179.583L158.676 201.902Z" fill="white"/>
<g opacity="0.1" filter="url(#filter3_d_2_1122)">
<path fill-rule="evenodd" clip-rule="evenodd" d="M302.5 203.1C328.734 203.1 350 181.834 350 155.6C350 129.367 328.734 108.1 302.5 108.1C276.266 108.1 255 129.367 255 155.6C255 181.834 276.266 203.1 302.5 203.1Z" fill="white"/>
</g>
<path d="M279.931 145.35C277.628 145.773 273.838 149.171 273.838 149.171C273.838 149.171 278.713 137.39 290.412 136.091C290.412 136.091 287.568 130.16 276.438 138.772C265.307 147.384 266.606 161.686 272.213 163.148C277.819 164.61 283.994 158.679 285.945 152.911C287.895 147.143 284.742 144.465 279.931 145.35ZM279.803 156.392C277.478 159.919 274.41 162.005 272.95 161.043C271.491 160.082 271.817 155.65 274.142 152.119C276.467 148.587 279.638 146.646 281.099 147.607C282.56 148.568 282.126 152.861 279.803 156.392Z" fill="white"/>
<path d="M326.314 152.868C325.704 154.426 326.382 147.654 324.045 147.654C321.708 147.654 320.35 148.083 316.969 152.496C315.298 154.676 319.614 145.47 312.198 145.264C310.204 145.209 307.879 145.983 307.657 146.095C307.435 146.206 301.801 142.158 294.646 150.858C294.646 150.858 295.48 144.402 290.412 144.979C290.412 144.979 291.963 148.461 287.966 158.391C283.969 168.321 281.466 173.776 282.266 175.4C283.065 177.024 284.742 176.723 285.387 176.391C286.032 176.058 292.381 155.707 296.86 151.16C300.6 147.362 302.825 146.727 303.975 147.727C303.975 147.727 292.324 154.929 295.026 161.891C295.951 164.274 300.005 164.053 303.127 161.174C306.248 158.295 310.45 152.517 308.589 147.36C308.589 147.36 314.291 145.926 312.73 151.507C311.17 157.089 308.649 160.75 310.27 162.676C311.891 164.603 313.692 162.529 314.651 160.504C315.611 158.479 320.53 148.273 322.033 149.654C323.536 151.036 319.032 159.317 321.613 160.697C324.193 162.077 329.941 149.977 331.061 148.401C331.969 147.123 333.784 146.378 332.956 149.894C332.721 150.894 328.59 161.559 330.017 163.761C331.444 165.962 334.758 165.758 334.758 165.758C334.758 165.758 332.63 161.736 336.216 151.944C339.756 142.372 330.388 142.458 326.314 152.868ZM297.207 160.989C294.071 158.491 301.651 151.019 304.01 149.629C304.317 149.447 304.614 149.644 304.643 149.999C304.875 152.893 299.275 162.632 297.207 160.989Z" fill="white"/>
<g opacity="0.1" filter="url(#filter4_d_2_1122)">
<path fill-rule="evenodd" clip-rule="evenodd" d="M195 98.1001C214.33 98.1001 230 82.4301 230 63.1001C230 43.7701 214.33 28.1001 195 28.1001C175.67 28.1001 160 43.7701 160 63.1001C160 82.4301 175.67 98.1001 195 98.1001Z" fill="white"/>
</g>
<path d="M194.596 69.2928C188.209 69.2928 183.025 64.0674 183.025 57.6172C183.025 51.1553 188.209 45.9337 194.596 45.9337C200.989 45.9337 206.166 51.1553 206.166 57.6172C206.166 64.0674 200.989 69.2928 194.596 69.2928ZM194.596 40.1001C185.021 40.1001 177.256 47.9421 177.256 57.6172C177.256 67.2849 185.021 75.1245 194.596 75.1245C204.176 75.1245 211.953 67.2849 211.953 57.6172C211.953 47.9421 204.176 40.1001 194.596 40.1001Z" fill="white"/>
<path d="M194.596 51.6146C191.314 51.6146 188.655 54.2932 188.655 57.6173C188.655 60.9303 191.314 63.6168 194.596 63.6168C197.882 63.6168 200.547 60.9301 200.547 57.6173C200.547 54.2933 197.882 51.6146 194.596 51.6146ZM178.913 79.6933H177V78.5016H182.229V79.6933H180.316V84.9454H178.913V79.6933ZM181.621 84.9454H183.041L183.542 83.5101H185.929L186.412 84.9454H187.868L185.482 78.5016H184.043L181.621 84.9454ZM184.74 80.0894H184.758L185.562 82.4541H183.909L184.74 80.0894ZM188.422 84.9454H189.826V82.4276H191.228C191.935 82.4276 192.194 82.7251 192.292 83.4017C192.364 83.9163 192.346 84.539 192.516 84.9455H193.918C193.668 84.5846 193.678 83.8256 193.651 83.4196C193.606 82.7689 193.41 82.0929 192.721 81.9126V81.8948C193.428 81.6062 193.732 81.0383 193.732 80.2792C193.732 79.3053 193.007 78.502 191.863 78.502H188.422L188.422 84.9454ZM189.826 79.6025H191.363C191.988 79.6025 192.328 79.8734 192.328 80.4954C192.328 81.1448 191.988 81.416 191.363 81.416H189.826V79.6025ZM199.308 84.2139C198.816 84.8556 198.174 85.1001 197.556 85.1001C195.582 85.1001 194.419 83.6086 194.419 81.7495C194.419 79.8372 195.582 78.3489 197.556 78.3489C198.861 78.3489 200.095 79.1611 200.247 80.6217H198.906C198.745 79.908 198.217 79.5395 197.556 79.5395C196.296 79.5395 195.822 80.6218 195.822 81.7495C195.822 82.8239 196.296 83.9063 197.556 83.9063C198.469 83.9063 198.995 83.4103 199.076 82.5163H197.664V81.4617H200.345V84.9452H199.45L199.308 84.2139ZM201.301 78.5016H206.073V79.6933H202.705V81.0735H205.796V82.1754H202.705V83.7537H206.145V84.9454H201.301V78.5016ZM208.683 79.6933H206.771V78.5016H212V79.6933H210.086V84.9454H208.683V79.6933Z" fill="white"/>
<g opacity="0.1" filter="url(#filter5_d_2_1122)">
<path fill-rule="evenodd" clip-rule="evenodd" d="M47.5 148.1C73.7335 148.1 95 126.834 95 100.6C95 74.3666 73.7335 53.1001 47.5 53.1001C21.2665 53.1001 0 74.3666 0 100.6C0 126.834 21.2665 148.1 47.5 148.1Z" fill="white"/>
</g>
<path d="M58.6957 112.518H72L54.5605 83.1001L44.7967 89.049L58.6957 112.518Z" fill="white"/>
<path d="M36.797 112.667L34.0735 108.067L31.7735 104.194L22 110.143L23.4927 112.667H36.797Z" fill="white"/>
<path d="M50.6547 107.601L53.9024 113.1H40.6085L33.2256 100.65L32.9028 100.108L33.2256 99.9143L42.6766 94.1492L50.6547 107.601Z" fill="white"/>
<defs>
<filter id="filter0_d_2_1122" x="185" y="230.1" width="130" height="130" filterUnits="userSpaceOnUse" color-interpolation-filters="sRGB">
<feFlood flood-opacity="0" result="BackgroundImageFix"/>
<feColorMatrix in="SourceAlpha" type="matrix" values="0 0 0 0 0 0 0 0 0 0 0 0 0 0 0 0 0 0 127 0" result="hardAlpha"/>
<feOffset dy="2"/>
<feGaussianBlur stdDeviation="15"/>
<feColorMatrix type="matrix" values="0 0 0 0 0.189 0 0 0 0 0.276027 0 0 0 0 0.35 0 0 0 0.15 0"/>
<feBlend mode="normal" in2="BackgroundImageFix" result="effect1_dropShadow_2_1122"/>
<feBlend mode="normal" in="SourceGraphic" in2="effect1_dropShadow_2_1122" result="shape"/>
</filter>
<filter id="filter1_d_2_1122" x="-60" y="225.1" width="180" height="180" filterUnits="userSpaceOnUse" color-interpolation-filters="sRGB">
<feFlood flood-opacity="0" result="BackgroundImageFix"/>
<feColorMatrix in="SourceAlpha" type="matrix" values="0 0 0 0 0 0 0 0 0 0 0 0 0 0 0 0 0 0 127 0" result="hardAlpha"/>
<feOffset dy="2"/>
<feGaussianBlur stdDeviation="15"/>
<feColorMatrix type="matrix" values="0 0 0 0 0.189 0 0 0 0 0.276027 0 0 0 0 0.35 0 0 0 0.15 0"/>
<feBlend mode="normal" in2="BackgroundImageFix" result="effect1_dropShadow_2_1122"/>
<feBlend mode="normal" in="SourceGraphic" in2="effect1_dropShadow_2_1122" result="shape"/>
</filter>
<filter id="filter2_d_2_1122" x="60" y="110.1" width="180" height="180" filterUnits="userSpaceOnUse" color-interpolation-filters="sRGB">
<feFlood flood-opacity="0" result="BackgroundImageFix"/>
<feColorMatrix in="SourceAlpha" type="matrix" values="0 0 0 0 0 0 0 0 0 0 0 0 0 0 0 0 0 0 127 0" result="hardAlpha"/>
<feOffset dy="2"/>
<feGaussianBlur stdDeviation="15"/>
<feColorMatrix type="matrix" values="0 0 0 0 0.189 0 0 0 0 0.276027 0 0 0 0 0.35 0 0 0 0.15 0"/>
<feBlend mode="normal" in2="BackgroundImageFix" result="effect1_dropShadow_2_1122"/>
<feBlend mode="normal" in="SourceGraphic" in2="effect1_dropShadow_2_1122" result="shape"/>
</filter>
<filter id="filter3_d_2_1122" x="225" y="80.1001" width="155" height="155" filterUnits="userSpaceOnUse" color-interpolation-filters="sRGB">
<feFlood flood-opacity="0" result="BackgroundImageFix"/>
<feColorMatrix in="SourceAlpha" type="matrix" values="0 0 0 0 0 0 0 0 0 0 0 0 0 0 0 0 0 0 127 0" result="hardAlpha"/>
<feOffset dy="2"/>
<feGaussianBlur stdDeviation="15"/>
<feColorMatrix type="matrix" values="0 0 0 0 0.189 0 0 0 0 0.276027 0 0 0 0 0.35 0 0 0 0.15 0"/>
<feBlend mode="normal" in2="BackgroundImageFix" result="effect1_dropShadow_2_1122"/>
<feBlend mode="normal" in="SourceGraphic" in2="effect1_dropShadow_2_1122" result="shape"/>
</filter>
<filter id="filter4_d_2_1122" x="130" y="0.100098" width="130" height="130" filterUnits="userSpaceOnUse" color-interpolation-filters="sRGB">
<feFlood flood-opacity="0" result="BackgroundImageFix"/>
<feColorMatrix in="SourceAlpha" type="matrix" values="0 0 0 0 0 0 0 0 0 0 0 0 0 0 0 0 0 0 127 0" result="hardAlpha"/>
<feOffset dy="2"/>
<feGaussianBlur stdDeviation="15"/>
<feColorMatrix type="matrix" values="0 0 0 0 0.189 0 0 0 0 0.276027 0 0 0 0 0.35 0 0 0 0.15 0"/>
<feBlend mode="normal" in2="BackgroundImageFix" result="effect1_dropShadow_2_1122"/>
<feBlend mode="normal" in="SourceGraphic" in2="effect1_dropShadow_2_1122" result="shape"/>
</filter>
<filter id="filter5_d_2_1122" x="-30" y="25.1001" width="155" height="155" filterUnits="userSpaceOnUse" color-interpolation-filters="sRGB">
<feFlood flood-opacity="0" result="BackgroundImageFix"/>
<feColorMatrix in="SourceAlpha" type="matrix" values="0 0 0 0 0 0 0 0 0 0 0 0 0 0 0 0 0 0 127 0" result="hardAlpha"/>
<feOffset dy="2"/>
<feGaussianBlur stdDeviation="15"/>
<feColorMatrix type="matrix" values="0 0 0 0 0.189 0 0 0 0 0.276027 0 0 0 0 0.35 0 0 0 0.15 0"/>
<feBlend mode="normal" in2="BackgroundImageFix" result="effect1_dropShadow_2_1122"/>
<feBlend mode="normal" in="SourceGraphic" in2="effect1_dropShadow_2_1122" result="shape"/>
</filter>
</defs>
</svg>
